<svg width="18" height="18" viewBox="0 0 18 18" xmlns="http://www.w3.org/2000/svg"><path fill="#F0F3FA" d="M0 0h18v18H0z"/><path d="M8.9 6h5.66c.16 0 .27.02.32.07.15.12.14.27.07.45L13.8 9.1a5.36 5.36 0 0 1-2.67 2.45c-.64.26-1.31.4-2.01.44H3.29a.3.3 0 0 1-.14-.02.28.28 0 0 1-.1-.09.26.26 0 0 1-.03-.25l1.13-2.77c.34-.82.93-1.5 1.78-2.02A5.86 5.86 0 0 1 8.9 6Zm-1.1 5h.85a5.1 5.1 0 0 0 2.05-.37 4.39 4.39 0 0 0 2.08-1.98c.24-.53.45-1.1.7-1.63a.01.01 0 0 0 0-.01h-.01V7H8.9l-.53.06c-.71.09-1.15.14-1.74.52a4.2 4.2 0 0 0-1.38 1.76c-.02.04 0 .05.03.02.41-.26.86-.56 1.34-.71.56-.18.98-.24 1.48-.25h2.73c.02 0 .03 0 .02.03A1.9 1.9 0 0 1 9.28 9.6H8.1a4.57 4.57 0 0 0-2.97 1.35c-.04.04-.03.05.02.05H7.8Z" fill="url(#acuxym0ll)"/><defs><linearGradient id="acuxym0ll" x1="14.63" y1="6.39" x2="3.55" y2="12.28" gradientUnits="userSpaceOnUse"><stop stop-color="#22B14C"/><stop offset="1" stop-color="#A4CD39"/></linearGradient></defs></svg>