<svg width="18" height="18" viewBox="0 0 18 18" xmlns="http://www.w3.org/2000/svg"><path fill="#EB1700" d="M0 0h18v18H0z"/><path d="M5.98 6H5v4.52c0 .5-.5.9-1 .9s-1-.5-1-.99V9.36l-1 .37v.56c0 .94.9 1.71 2 1.71s1.99-.75 2-1.67C6 9 6 7.22 5.97 6ZM14.98 6H14v4.52c0 .5-.5.9-1 .9s-1-.5-1-.99V9.36l-1 .37v.56c0 .94.9 1.71 2 1.71s1.99-.75 2-1.67C15 9 15 7.22 14.97 6Z" fill="#fff"/><path fill-rule="evenodd" d="M11.13 12H9.96l-.43-.52c-.28.22-1 .52-1.66.52-.83 0-1.44-.73-1.44-1.54 0-.8.52-1.4 1.03-1.66a5.45 5.45 0 0 0-.1-.13c-.2-.27-.48-.68-.48-1.18 0-.58.36-1.49 1.48-1.49s1.3.83 1.3 1.16c0 .33-.2.81-.69 1.06l.35-.1A2 2 0 0 1 9.87 8c.53 0 .97.22.97 1.05 0 .67-.46 1.51-.66 1.79l.95 1.16Zm-2.8-3.6-.4-.51a3.61 3.61 0 0 0-.05-.06 1.04 1.04 0 0 1-.28-.69c0-.48.45-.68.74-.68s.73.2.73.79c0 .58-.32.89-.73 1.16Zm1.61 2.13-1.4-1.86c.05-.06.27-.18.7-.18.54 0 .95.44.95 1.04 0 .48-.17.91-.25 1Zm-.63.56L7.67 9.05c-.1.1-.3.44-.3 1.04 0 .75.32 1.24.99 1.24.53 0 .88-.17.95-.24Z" fill="#fff"/></svg>