<svg width="56" height="56" xmlns="http://www.w3.org/2000/svg"><path fill="#0046AD" d="M0 0h56v56H0z"/><path d="M40.501 23a2.5 2.5 0 11-.003-4.998A2.5 2.5 0 0140.501 23z" fill="#F7901E"/><path d="M48 34h-3l-1-6-2 6.002L39.003 34 37 28l-1 6-3 .002s.569-5.068.792-7.117c.204-1.908 1.332-2.883 3.058-2.883H38L40.5 31l2.5-6.998h1.307c1.718 0 2.698.972 2.913 2.88C47.441 28.862 48 34 48 34zm-31.317-9.998l4.317 10h-3.002L17 32h-5l-1 2H8s2.333-4.917 3.128-6.715c.936-2.112 1.736-3.283 3.68-3.283h1.875zM14.5 26l-1.83 4 3.71.002L14.5 26zM32 31.175c0 1.762-1.083 2.827-3.493 2.827H22v-7.19c0-1.586.971-2.81 2.92-2.81h3.314c2.29 0 3.388.94 3.388 2.541 0 1.068-.707 1.762-1.622 2.101v.08c.648.076 2 .773 2 2.448v.003zM27.389 28c.748 0 1.314-.427 1.306-1.028-.008-.6-.458-.972-1.306-.972H25v2h2.389zm.122 4c.892 0 1.51-.287 1.489-1-.021-.713-.637-.998-1.489-.998H25V32h2.511z" fill="#fff"/></svg>