<svg xmlns="http://www.w3.org/2000/svg" width="56" height="56"><path fill="#F0F3FA" d="M0 0h56v56H0z"/><path d="M11.44 30.73c4.4-6.8 8.73-11.88 12.84-17.73H32L19.7 30.73S18 32.8 18 34.76c0 1.24.58 2.2 1.18 3.24H11.7c-.86-.6-1.71-2.2-1.71-3.24 0-1.56.64-2.78 1.44-4.03z" fill="#00539F"/><path d="M33.38 13c4.1 5.85 7.91 10.92 12.3 17.73A7.11 7.11 0 0147 34.76 4.7 4.7 0 0145.42 38h-7.41c.6-1.03 1-2 .99-3.24 0-1.96-1.52-4.03-1.52-4.03L29 19.25 33.38 13z" fill="#00A0E0"/><path d="M28.5 32c.75-1.72 2.46-2.89 2.5-4.88 0-1.9-1.58-3.56-2.5-5.12-.92 1.56-2.53 3.23-2.5 5.13 0 2 1.75 3.16 2.5 4.87z" fill="#00539F"/><path d="M28.49 34.02c-.15-.38-.47-1.05-.47-1.05S26.85 30 23.3 30h-2.15c-.09.22-.15.72-.15.91 0 3.25 2.5 5.09 4.78 5.09 1.5 0 1.84.54 2.14.92.26.32.56 1.08.56 1.08s.31-.76.57-1.08c.3-.38.65-.92 2.14-.92a4.9 4.9 0 004.71-6h-2.2c-3.63 0-4.76 2.97-4.76 2.97s-.31.67-.45 1.05z" fill="#00539F"/></svg>