<svg width="56" height="56" viewBox="0 0 56 56" xmlns="http://www.w3.org/2000/svg"><path fill="#F0F3FA" d="M0 0h56v56H0z"/><path d="M24.64 31.33c-.05 0-.1.02-.11.08l-.6 1.54a.08.08 0 0 1-.07.05h-2.57c-.03 0-.05-.02-.03-.06l3.48-9.4a.78.78 0 0 1 .47-.46c.12-.05.32-.08.6-.08h1.83c.04 0 .07.02.08.05l3.6 9.92V33h-.01l-2.63.01-.05-.01a.08.08 0 0 1-.02-.04l-.56-1.57a.08.08 0 0 0-.08-.06h-3.33Zm.63-2.04v.03l.02.01h2.04l.01-.01v-.03l-1-3.04-.02-.01a.03.03 0 0 0-.04 0l-.01.01-1 3.04ZM35.45 33H33.2c-.5 0-.84-.06-1.02-.17a1.44 1.44 0 0 1-.6-.67c-.07-.17-.1-.46-.1-.87a16251.07 16251.07 0 0 0 0-8.28h.03l3.56-.01c2.58.04 4.64 1.62 4.85 4.4.03.4.03.83 0 1.27-.18 2.5-2.12 4.11-4.46 4.33ZM34 25.25v5.46l-.02.02a.04.04 0 0 0 .02.02h.86a2.4 2.4 0 0 0 1.73-.73c.46-.47.72-1.12.73-1.8v-.46a2.62 2.62 0 0 0-.71-1.8 2.44 2.44 0 0 0-1.73-.75H34l-.01.04Zm12.01 2.15 2-4.35a.07.07 0 0 1 .07-.05h1.33c.34 0 .6.03.75.1.37.2.49.5.55.95L52 32.94c0 .04-.01.06-.05.06h-2.42c-.01 0-.03 0-.04-.02a.06.06 0 0 1-.02-.03l-.68-5.56v-.02a.03.03 0 0 0-.05 0 14795.46 14795.46 0 0 1-2.2 4.12.7.7 0 0 1-.96.13c-.08-.07-.18-.2-.28-.4l-2.02-3.85c-.02-.05-.04-.05-.05 0l-.8 5.56c0 .05-.02.07-.07.07h-2.4a.04.04 0 0 1-.03-.01.04.04 0 0 1-.01-.04l1.63-9.92V23l.02-.01h2.42c.04 0 .07.02.08.06l1.89 4.34c.01.04.03.04.05 0Z" fill="#212C65"/><path d="M13.06 23h8.66c.25 0 .42.04.5.11.23.2.22.46.1.75l-1.75 4.3a8.28 8.28 0 0 1-7.18 4.83H4.45a.43.43 0 0 1-.36-.19.45.45 0 0 1-.05-.41l1.73-4.62a7 7 0 0 1 2.73-3.38 8.5 8.5 0 0 1 3.63-1.3c.4-.05.71-.08.94-.08Zm-1.63 8h1.3a7.2 7.2 0 0 0 3.15-.6 5.96 5.96 0 0 0 3.1-2.99c.37-.88.56-1.52.94-2.39a.03.03 0 0 0-.01-.03l-.02.01h-6.97c-.27.03-.54.04-.8.08-1.1.15-1.76.24-2.68.87a5.75 5.75 0 0 0-1.98 2.61c-.02.07 0 .09.05.04.63-.44 1.31-.93 2.05-1.19.86-.3 1.51-.4 2.28-.41h4.18c.04 0 .05.02.04.05A2.96 2.96 0 0 1 13.63 29h-1.8c-.38 0-.91.1-1.6.31-1.14.37-2 .7-2.87 1.63-.06.06-.05.06.04.06h4.03Z" fill="url(#ahgahbgwa)"/><defs><linearGradient id="ahgahbgwa" x1="21.83" y1="23.65" x2="4.24" y2="32.25" gradientUnits="userSpaceOnUse"><stop stop-color="#22B14C"/><stop offset="1" stop-color="#A4CD39"/></linearGradient></defs></svg>