<svg width="56" height="56" viewBox="0 0 56 56" xmlns="http://www.w3.org/2000/svg"><path fill="#F0F3FA" d="M0 0h56v56H0z"/><path fill-rule="evenodd" d="M5 34h3.43v-.46h-.8c-.59 0-1-.7-.8-1.3L8 29h4.49l1.32 3.66c.14.4-.13.88-.53.88h-.82V34h7.66v-.47h-.63c-.63 0-1.14-.55-1.14-1.23V21.5L23.02 34 28 21.5v10.8c0 .68-.51 1.23-1.14 1.23h-.5V34h4.77v-.47h-.37c-.63 0-1.14-.55-1.14-1.23V21.62c0-.68.51-1.24 1.14-1.24h.37V20h-3.35l-4.23 11.27L19.75 20h-3.1v.38h.34c.47 0 .84.31 1 .78l.01.03v11.1c0 .69-.45 1.24-1.08 1.24h-.51c-.35 0-.66-.28-.8-.63L10.82 20 6.06 32.71c-.17.46-.6.83-1.06.83H5V34Zm7.3-5.5-2.07-5.74-2.05 5.74h4.13Zm19.62-8.14V20h4.58v.36h-.34c-.62 0-1.16.55-1.16 1.23v10.7c0 .68.54 1.23 1.16 1.23h.34V34h-4.58v-.48h.36c.63 0 1.14-.55 1.14-1.24V21.6c0-.68-.5-1.23-1.14-1.23h-.36Zm6.02-.36v.36h.36c.63 0 1.14.55 1.14 1.23v10.7c0 .68-.5 1.23-1.14 1.23h-.36V34h4.42v-.48h-.33c-.63 0-1.03-.55-1.03-1.24V27h6v5.28c0 .69-.58 1.24-1.21 1.24h-.37V34H50v-.48h-.33c-.63 0-1.14-.55-1.14-1.24V21.6c0-.68.51-1.23 1.14-1.23H50V20h-4.58v.36h.37c.63 0 1.21.55 1.21 1.23v4.91h-6v-4.9c0-.69.4-1.24 1.03-1.24h.33V20h-4.42ZM50 35H5v1h45v-1Z"/></svg>