<svg xmlns="http://www.w3.org/2000/svg" width="56" height="56" viewBox="0 0 56 56"><path fill="#F0F3FA" d="M0 0h56v56H0z"/><path d="M41.91 24h-2.94c-.25-3.3-2.56-10.16-9.81-10.02-7.26.13-9.68 6.84-9.98 10.02h-3.42c.4-4.39 3.63-13.35 13.4-12.87 9.77.48 12.57 8.88 12.75 12.87z" fill="#B3E0EB"/><path d="M16.13 24h25.34c1.33 4.03-2.56 7.89-4.47 9.45V43H23.32v-3.18c-.98.02-3.33.06-4.92 0-1.6-.07-2.33-1.13-2.5-1.66v-4.28l-3.42-.43 3.41-6.65.24-2.8z" fill="#1FC2DE"/><path d="M18 24v-.13c0-6 4.92-10.87 11-10.87a10.94 10.94 0 0 1 11 11h-2.03v-.13c0-4.9-4.01-8.87-8.97-8.87a8.92 8.92 0 0 0-8.97 9H18z" fill="#510B76"/><path fill="#510B76" d="M20 22h10v2H20zM32 22h7v2h-7z"/><path fill="#510B76" d="M34 26v-6h2v6z"/><path d="M27.12 17.59c0 .5-.4.9-.9.9a.9.9 0 0 1-.9-.9c0-.5.4-.9.9-.9s.9.4.9.9zm3.04 0c0 .5-.4.9-.9.9a.9.9 0 0 1-.91-.9c0-.5.4-.9.9-.9s.9.4.9.9zm-.9 3.7c.5 0 .9-.4.9-.89 0-.5-.4-.9-.9-.9s-.91.4-.91.9.4.9.9.9zm-2.14-.89c0 .5-.4.9-.9.9a.9.9 0 0 1-.9-.9c0-.5.4-.9.9-.9s.9.4.9.9zm-4 .9c.5 0 .9-.4.9-.9s-.4-.9-.9-.9-.91.4-.91.9.4.9.9.9z" fill="#B3E0EB"/><path d="M28.9 12a12.04 12.04 0 0 0-11.91 14.32l.07.34L13.8 33H17V37.68c-.02.27.02.64.17.91.06.12.15.2.26.27.11.07.3.14.65.14H24v4h-2v-2h-3.92c-.63 0-1.19-.14-1.66-.4-.46-.28-.79-.65-1-1.04A3.78 3.78 0 0 1 15 37.6V35h-4.5l4.46-8.64A14.04 14.04 0 0 1 28.9 10C36.7 10 43 16.23 43 23.94c0 3.92-1.25 7.56-4 10.15V41h-2v-7.81l.34-.3C39.8 30.75 41 27.6 41 23.94 41 17.36 35.6 12 28.9 12z" fill="#510B76"/></svg>