<svg width="56" height="56" xmlns="http://www.w3.org/2000/svg"><path fill="#FEBF01" d="M0 0h56v56H0z"/><path d="M41.807 37.579c-.072.091-.217.67.242.297.292-.236 3.372-4.678 2.902-9.85-.269-2.964-1.773-6.219-5.465-8.93-3.015-2.215-6.704-2.375-9.287-1.837C25.002 18.341 22 22.824 22 23.14c0 .472.385.273.484.075.069-.14 3.552-4.871 9.069-4.987 2.347-.05 5.695.697 8.271 3.051 8.175 7.47 2.056 16.209 1.983 16.3z" fill="#fff"/><path d="M26.464 24C23.536 24 22 31.925 22 36h1.843c0-3.68 1.323-11.012 2.62-11.012 1.377 0 1.958 6.638 2.077 10.03h1.972c0-5.854.96-10.03 2.024-10.03S35.183 32.147 35.183 36H37c0-6.397-2.465-12-4.464-12-1.495 0-2.647 2.634-3.036 3.952 0-.593-1.246-3.952-3.036-3.952z" fill="#fff"/><path d="M14.877 21.24c-2.868 7.417 2.2 14.482 2.426 14.758.226.277.54.252.441 0-.098-.251-2.844-3.897-2.622-9.503.247-6.248 5.466-13.303 12.967-13.828 7.942-.555 12.051 3.855 13.555 6.185.343.532.384 0 .343-.076-4.067-7.467-11.742-7.847-13.898-7.768-2.77.1-10.074 2.116-13.212 10.232z" fill="#fff"/><path d="M16.564 39.134c-5.841-5.887-5.113-12.996-4.018-15.814 0-.439-.245-.414-.441 0-2.598 8.772-.173 12.524 2.72 16.3 3.955 5.166 13.033 7.018 19.257 3.753 4.978-2.612 7.333-7.83 7.889-10.112.122-.39-.172-.432-.294-.097-1.725 4.717-5.782 7.748-7.595 8.674-3.406 1.551-11.677 3.182-17.518-2.704z" fill="#fff"/></svg>