<svg width="56" height="56" xmlns="http://www.w3.org/2000/svg"><path fill="#EC1521" d="M0 0h56v56H0z"/><path d="M32.627 21.604c.85 0 1.663-.42 2.176-1.122a2.834 2.834 0 00.543-1.68c0-.61-.188-1.192-.543-1.68A2.712 2.712 0 0032.627 16c-1.5 0-2.72 1.257-2.72 2.802 0 1.545 1.22 2.802 2.72 2.802z" fill="#fff"/><path d="M42.98 21.772c-.03-.037-.09-.041-.16-.019l-.039.015c-2.04.772-6.538 1.612-12.592.503-7.21-1.32-9.798-.656-11.07-.177l-.032.013c-.077.033-.125.084-.122.137.004.054.06.098.141.121.004 0 .007.001.011.003 9.103 2.106 3.469 9.948-8.958 17.345a.39.39 0 00-.062.036c-.07.05-.108.112-.094.165.017.06.1.09.207.085.01 0 .02 0 .028-.002 2.167-.201 5.36-1.396 9.194-3.154l.005-.002c.447-.205.903-.418 1.367-.639 1.938-.873 4.138-1.691 5.534-1.238 1.84.597 2.194 2.01 2.415 4.688l.004.042c.009.069.035.12.079.133.047.015.102-.02.15-.082a.428.428 0 01.017-.024c.895-1.267 4.214-6.22 4.401-10.13 4.46-2.665 8.18-5.398 9.524-7.582a.445.445 0 00.044-.072c.033-.066.038-.128.008-.165z" fill="#fff"/></svg>