<svg width="56" height="56" viewBox="0 0 56 56" xmlns="http://www.w3.org/2000/svg"><path fill="#032F5F" d="M0 0h56v56H0z"/><path d="M50.74 22h-2.66l-.36 1.22c.02.36-.04.8-.2 1.34l-.11.51-.24.05-.71 2.45c.1.43.04 1.06-.21 1.97l-.49 1.69c-.25.85-.54 1.49-.93 1.96l-.24.81h2.93L51 22h-.26ZM35 24.26l-.43 1.5c-.23.79-.8 1.5-1.55 1.86.03.9.58 1.26 1.79 1.35.23.02.48.03.75.03h7.84l-.79 3h-8.89l.39-1.6.02-.08-.83.16-.37 1.26c-.23.8-.7 1.43-1.42 1.85.4.3 1.1.41 2.12.41h7.77c2.37 0 3.31-.58 3.97-2.84l.48-1.65c.65-2.25.04-2.51-2.33-2.51h-7.84l.75-3h8.23l-.4 1.46.42-.08 2.34-.5.08-.25c.6-2.07-.12-2.63-2.37-2.63H37.6c-1.03 0-1.79.1-2.37.42-.1.05-.2.11-.28.18.25.38.27.92.05 1.66Z" fill="#fff"/><path d="M32.53 31.65c-.47 1.6-1.92 2.35-4.39 2.35h-9.99l.1-.33c.79-.44 1.3-1.1 1.54-1.95l.46-1.56c.24-.84.1-1.55-.42-1.96l.2-.67a2.74 2.74 0 0 0 1.4-1.79l.43-1.5c.28-.95.17-1.57-.31-1.94l.08-.3h10.78c1.92 0 2.63.65 2.15 2.32l-.43 1.47c-.33 1.16-1.32 1.86-2.75 2.02 1.4.19 1.97 1.03 1.6 2.3l-.45 1.54ZM23.06 27h6.96c.72-.03 1.18-.42 1.36-1.05l.33-1.14c.2-.7-.19-.81-1.09-.81h-6.68l-.88 3Zm-1.4 5h6.67c1 0 1.47-.35 1.73-1.23l.26-.91c.2-.67 0-.77-.53-.86H22.5l-.84 3Z" fill="#fff"/><path d="M19.38 31.65c-.47 1.6-1.93 2.35-4.39 2.35H5l3.48-12h10.77c1.93 0 2.64.65 2.16 2.32l-.43 1.47c-.34 1.16-1.32 1.86-2.75 2.02 1.4.19 1.96 1.03 1.6 2.3l-.45 1.54ZM9.85 27h6.67c.2 0 .38 0 .54-.03a1.4 1.4 0 0 0 1.17-1.02l.33-1.14c.2-.7-.2-.81-1.1-.81H10.8l-.94 3ZM8.5 32h6.67c1 0 1.47-.35 1.73-1.23l.26-.91c.22-.76-.07-.8-.76-.86H9.33l-.82 3Z" fill="#fff"/></svg>