<svg width="56" height="56" xmlns="http://www.w3.org/2000/svg"><path fill="#003F86" d="M0 0h56v56H0z"/><path d="M42.386 24.4c-.147.393-.294.811-.453 1.218-1.321-1.245-3.23-1.447-4.905-1-1.016.256-2.105 1.175-2.3 2.392-.184 1.23.036 2.486.941 3.257 1.285 1.082 3.242 1.095 4.796.704l.416-.176c0-.332-.005-1.037-.005-2.271-.318 0-.717.027-1.048.067 0-.284.025-.581 0-.865.833.136 1.781.072 2.47.094v3.475c-1.789.525-4.035.784-6.017.35-1.31-.27-2.765-1.27-3.108-2.81-.33-1.42.05-2.88 1.113-3.773 1.7-1.405 4.062-1.526 6.204-1.216.66.095 1.31.258 1.896.555zm8.479-.494c-.074.311-.013.575-.013.886-.722-.121-1.517-.135-2.263-.135h-3.377c0 2.313-.012 1.595-.012 2.393 1.786.014 3.572-.013 5.37-.04a2.668 2.668 0 00-.012.824c-1.786-.068-3.56 0-5.346 0 0 2.854-.012 2.042 0 3.014 1.1.028 2.19 0 3.291-.013.82-.013 1.672-.005 2.48-.14 0 .31-.057.754.017 1.05h-7.242c0-2.756-.01-5.265.002-7.86 2.949 0 .43.021 7.105.021zm-19.162.14v7.824h-.584a454.199 454.199 0 00-6.767-5.82c-.003.498-.002 2.333-.002 5.74-.306-.027-.715-.054-1.034 0v-7.765c-.012-.012.783 0 .816 0 .2 0 4.361 3.62 6.54 5.472.003-2.95 0-2.324 0-5.451.33.04.712.014 1.03 0zm-10.011-.033v4.795c0 1.095-.692 2.135-1.621 2.608-1.2.609-2.668.704-4.038.46-.99-.176-2.117-.663-2.52-1.838a4.493 4.493 0 01-.209-1.298l.014-4.725c.872.116.688.066 1.422 0 0 3.969-.023 3.25.027 4.873.024.811.434 1.717 1.205 2.014.966.365 2.178.42 3.168.069.624-.217 1.212-.866 1.395-1.57.086-.35.11-.729.135-1.107V24.03c.616.084.661.051 1.021-.017zM9.744 28.307c-1.26-.486-2.65-.28-4.066-.282l-.008 3.082c1.99.008 2.14.012 3.169-.07.6-.053 1.211-.337 1.517-.946.22-.419.147-1.054-.122-1.419-.13-.169-.3-.295-.49-.365zm-.807-3.447c-2.556-.021-2.216-.027-3.269 0 0 1.948-.01.152-.01 2.406 1.064.014 2.226.054 3.28-.162.488-.095 1.087-.379 1.235-1 .073-.338.011-.676-.22-.905-.282-.257-.65-.335-1.016-.339zm2.067-.31c.44.31.612.878.514 1.432-.146.865-.99 1.352-1.64 1.595.71.135 1.494.298 1.897 1.055.342.648.27 1.609-.196 2.176-.905 1.095-2.275 1-3.56 1.068l-4.015-.006c0-4.056-.004-4.457-.004-7.857 2.283 0 2.698.008 4.068.008.967.014 2.105-.026 2.936.528zM17.722 20c-.62 0-1.19.229-1.648.613h3.295A2.548 2.548 0 0017.722 20zm2.722 3.007c0-.124-.007-.245-.02-.365H15.02a3.462 3.462 0 00-.006.675h5.416c.01-.101.014-.205.014-.31z" fill="#fff"/><path d="M17.722 26.015c.624.001 1.229-.235 1.713-.67H16.01c.484.435 1.09.671 1.713.67zm2.234-4.725h-4.467c-.133.209-.24.436-.321.675h5.108a3.134 3.134 0 00-.32-.675zm-4.806 2.703c.075.239.176.466.303.676h4.538c.126-.21.228-.438.303-.676H15.15z" fill="#fff"/></svg>