<svg xmlns="http://www.w3.org/2000/svg" width="56" height="56" viewBox="0 0 56 56"><path d="M56 0H0v56h56V0Z" fill="#F0F3FA"/><path d="M7.5 24H5v7h2.03c1.43-.01 2.97-.13 2.97-2 0-.76-.5-1.25-1.24-1.5.55-.3.74-.9.74-1.5 0-1.4-.85-2-2-2ZM6 27v-2h.9c.78 0 1.6 0 1.6 1s-.87 1-1.5 1H6Zm0 3v-2h1.33c.71 0 1.67.06 1.67 1 0 .75-.93 1-1.61 1H6Zm5 1h1v-2c0-1.32.42-2 2-2v-1c-.9 0-1.5 0-2 .5V26h-1v5Zm4-2.57c0-1.4 1.13-2.43 2.5-2.43 1.4 0 2.5 1.07 2.5 2.49A2.47 2.47 0 0 1 17.5 31C16 31 15 29.89 15 28.43Zm1 .07c0 1 .7 1.5 1.5 1.5.82 0 1.5-.52 1.5-1.5 0-1-.7-1.5-1.5-1.5s-1.5.5-1.5 1.5Zm7.5-2.5a2.43 2.43 0 0 0-2.5 2.43c0 1.46.99 2.57 2.5 2.57 1.42 0 2.5-1.1 2.5-2.51 0-1.42-1.1-2.49-2.5-2.49Zm0 4c-.8 0-1.5-.5-1.5-1.5s.7-1.5 1.5-1.5 1.5.5 1.5 1.5c0 .98-.68 1.5-1.5 1.5Zm3.5-6h1v4l2-2h1l-1.23 1.5L31 31h-1l-1-3-1 1v2h-1v-7Zm6 2h-1v1h1v4h1v-4h1v-1h-1v-.5c0-.5.5-.5 1.5-.5v-1h-1c-1.02 0-1.5.49-1.5 1.5v.5Zm4-1v-1h1v1h-1Zm0 6v-5.07h1V31h-1Zm6.93-1.42-1.2-.2c-.16.47-.69.62-1.13.62-1.1 0-1.58-.39-1.6-1h4c.02-.97-.2-1.83-.66-2.3a2.52 2.52 0 0 0-1.89-.7c-.7 0-1.3.22-1.75.67-.47.45-.7 1.07-.7 1.87 0 .66.18 1.2.53 1.65.45.54 1.14.81 2.07.81.58 0 1.07-.12 1.47-.36.39-.24.68-.6.86-1.06ZM41.5 27c1 0 1.48.42 1.5 1h-3c0-.6.5-1 1.5-1Zm3.5-3h1v7h-1v-7Zm5 7h1v-7h-1v2.48c-.16-.24-.48-.48-1-.48-1.46 0-2 1.18-2 2.5 0 1.27.57 2.5 2 2.5.53 0 .82-.19 1-.5v.5Zm-1.01-1c-.72 0-1-.77-1-1.52 0-.7.18-1.48 1-1.48.88 0 1 .71 1 1.45 0 .69-.18 1.55-1 1.55Z" fill="#2B2A29"/></svg>