<svg width="56" height="56" xmlns="http://www.w3.org/2000/svg"><path fill="#F0F3FA" d="M0 0h56v56H0z"/><path d="M19.6 36.7c-.8-13 1.6-20.6 5.4-24.7H15v32l4.6-7.3z" fill="url(#paint0_linear)"/><path d="M16.9 44h13.6c7.3 0 12-2.7 12-8.6v-.1c0-1.9-.5-3.4-1.3-4.6-6.6 3.6-14.7 5.1-18.9 5.6-1.5 2.6-3.3 5-5.4 7.7z" fill="url(#paint1_linear)"/><path d="M19.6 36.7c-1.5 2.2-3.1 4.4-4.6 7.3h2c2.1-2.7 3.9-5.1 5.5-7.6-1.9.2-2.9.3-2.9.3z" fill="#183C47"/><path d="M39.7 24.4c.6-1.1 1-2.4 1-4v-.1c0-4.6-3.4-7.8-8.9-8.3-.5 5-2.1 10.6-5.2 16.9 4.9-4 9.5-4.8 13.1-4.5z" fill="url(#paint2_linear)"/><path d="M19.6 36.7c2.4-3.4 4.7-5.9 7-7.8 3.1-6.3 4.6-11.9 5.2-16.9H24.9c-3.7 4.1-6.1 11.6-5.3 24.7z" fill="url(#paint3_linear)"/><path d="M36.5 27.4c1.3-.7 2.4-1.6 3.2-3-3.6-.3-8.2.5-13.1 4.5-1.2 2.4-2.6 4.9-4.2 7.4 4.412 0 12.6-1.8 18.9-5.6-1.1-1.5-2.7-2.5-4.8-3.3z" fill="url(#paint4_linear)"/><path d="M19.6 36.7s1.1-.1 2.8-.3c1.6-2.6 3.4-5.5 4.6-7.8-2.6 1.5-5.1 4.7-7.4 8.1z" fill="#005949"/><defs><linearGradient id="paint0_linear" x1="17.921" y1="35.76" x2="20.037" y2="11.57" gradientUnits="userSpaceOnUse"><stop offset=".15" stop-color="#E11B22"/><stop offset=".52" stop-color="#C8161D"/><stop offset=".663" stop-color="#C6161D"/><stop offset=".759" stop-color="#BF151B"/><stop offset=".843" stop-color="#B41217"/><stop offset=".918" stop-color="#A30D11"/><stop offset=".988" stop-color="#8F0507"/><stop offset="1" stop-color="#8B0304"/></linearGradient><linearGradient id="paint1_linear" x1="15.093" y1="45.697" x2="45.671" y2="33.343" gradientUnits="userSpaceOnUse"><stop offset=".1" stop-color="#005F87"/><stop offset=".143" stop-color="#00719F"/><stop offset=".19" stop-color="#0080B4"/><stop offset=".238" stop-color="#008CC4"/><stop offset=".289" stop-color="#0094D0"/><stop offset=".341" stop-color="#0099D7"/><stop offset=".4" stop-color="#009BDB"/><stop offset=".483" stop-color="#0098D6"/><stop offset=".568" stop-color="#0093CE"/><stop offset=".655" stop-color="#008AC2"/><stop offset=".743" stop-color="#007DAF"/><stop offset=".831" stop-color="#006B97"/><stop offset=".88" stop-color="#005F87"/></linearGradient><linearGradient id="paint2_linear" x1="29.26" y1="25.17" x2="40.008" y2="13.645" gradientUnits="userSpaceOnUse"><stop offset=".15" stop-color="#BFD730"/><stop offset=".35" stop-color="#BBD32F"/><stop offset=".495" stop-color="#B5CC2D"/><stop offset=".621" stop-color="#ABC22B"/><stop offset=".738" stop-color="#9DB327"/><stop offset=".846" stop-color="#8A9F21"/><stop offset=".88" stop-color="#83981F"/></linearGradient><linearGradient id="paint3_linear" x1="19.423" y1="24.317" x2="31.782" y2="24.317" gradientUnits="userSpaceOnUse"><stop offset=".27" stop-color="#F47920"/><stop offset=".441" stop-color="#F07720"/><stop offset=".578" stop-color="#E7731F"/><stop offset=".703" stop-color="#DA6C1C"/><stop offset=".822" stop-color="#C76318"/><stop offset=".934" stop-color="#AF5711"/><stop offset=".95" stop-color="#AB5410"/></linearGradient><linearGradient id="paint4_linear" x1="25.244" y1="33.95" x2="39.886" y2="26.489" gradientUnits="userSpaceOnUse"><stop offset=".15" stop-color="#48A842"/><stop offset=".314" stop-color="#46A641"/><stop offset=".484" stop-color="#3D9E3F"/><stop offset=".657" stop-color="#2E923A"/><stop offset=".83" stop-color="#158033"/><stop offset="1" stop-color="#006B2A"/></linearGradient></defs></svg>