<svg width="56" height="56" xmlns="http://www.w3.org/2000/svg"><path fill="#0F3557" d="M0 0h56v56H0z"/><path d="M4 24h2.704c1.26 0 3.029.14 3.029 2.056 0 1.032-.652 1.627-1.498 1.833.92.178 1.765.682 1.765 1.88C10 31.674 8.237 32 6.947 32H4v-8zm1.994 1.027v2.405h.994c.397-.009 1-.262 1-1.134 0-.907-.547-1.27-.887-1.27H5.994zm0 3.538V31h.889c.583-.009 1.352-.226 1.352-1.232 0-1.005-.705-1.194-1.06-1.203h-1.18zM12.488 26.71c.343-.324.71-.592 1.512-.675v1.533l-.507.092c-.744.148-.993.268-.993 1.016V32H11v-5.965h1.496v.674h-.008zM20 29.017C20 30.433 19.254 32 17.258 32c-1.443 0-2.758-.907-2.758-2.983 0-1.725.994-3.09 2.95-2.975 2.093.14 2.55 1.954 2.55 2.974zm-3.728-1.11c-.184.326-.257.713-.257 1.1 0 .89.393 1.682 1.235 1.682.818 0 1.219-.722 1.219-1.602 0-.625-.137-1.109-.425-1.408a1 1 0 00-.882-.308c-.425.026-.682.185-.89.537zM26 29.017C26 30.433 25.254 32 23.258 32c-1.443 0-2.758-.907-2.758-2.983 0-1.725.994-3.09 2.95-2.975 2.093.14 2.55 1.954 2.55 2.974zm-3.728-1.11c-.184.326-.257.713-.257 1.1 0 .89.393 1.682 1.235 1.682.818 0 1.219-.722 1.219-1.602 0-.625-.137-1.109-.425-1.408a1 1 0 00-.882-.308c-.425.026-.682.185-.89.537zM27 24h1.418v4.111L29.986 26h1.724l-1.65 2.194L31.97 32h-1.672l-1.264-2.546-.625.703V32H27v-8zM33 24.578c.185-.284.609-.578 1.313-.578.304 0 .608.053.904.098v1.131h-.36c-.568 0-.608.01-.592.766h1.008V27h-1v5h-1.496v-5h-.8v-1.005h.816c0-.536-.096-.957.208-1.417zM36 24h1.5v1H36v-1zm0 2h1.5v6H36v-6zM43.632 30.345c-.176.294-.352.578-.616.845-.44.454-1.104.81-1.928.81-1.52 0-2.584-1.077-2.584-2.937 0-1.37.608-3.132 2.624-3.132.304 0 1.184.036 1.84.819.664.792.648 1.61.664 2.25h-3.648c-.008.703.336 1.647 1.144 1.647.824 0 1.104-.597 1.288-1.006l1.216.704zm-1.552-2.332c-.032-.24-.016-.32-.224-.578a1.01 1.01 0 00-.736-.311.977.977 0 00-.76.373c-.144.178-.209.32-.255.516h1.975zM46 24h-1.5v8H46v-8zM52 24v8h-1.388v-.685c-.235.258-.633.685-1.396.685-.52 0-1.055-.223-1.461-.65C47 30.558 47 29.41 47 29.046c0-2.145 1.112-3.026 2.16-3.026.681 0 1.095.347 1.371.578V24h1.47zm-1.453 5.01c0-.258 0-.97-.324-1.406-.073-.098-.285-.338-.593-.338-1.08 0-1.08 1.495-1.08 1.744 0 .792.195 1.762.974 1.762a.81.81 0 00.496-.178c.527-.4.527-1.273.527-1.584z" fill="#fff"/></svg>