<svg width="56" height="56" xmlns="http://www.w3.org/2000/svg"><path fill="url(#paint0_linear)" d="M0 0h56v56H0z"/><path d="M8.858 28.246c.943.206 1.744 1.167 1.594 2.072-.123.745-.762 1.251-1.229 1.435-.396.157-1 .247-1.813.247H4v-.215h.271c.427 0 .774-.255.774-.674v-4.833c0-.462-.05-.755-.154-.875-.138-.162-.346-.243-.618-.243H4v-.205h3.121c.583 0 1.051.045 1.402.133.645.16 1.598.712 1.598 1.483 0 .835-.482 1.41-1.264 1.675zm-2.857-.3c0 .027.347.045.517.058.557.045 1.208.078 1.726-.154.52-.228.814-.576.814-1.231-.072-1.002-1.37-1.293-2.031-1.293-.357 0-.74.039-1.026.12v2.5zM6 31.447c.413.1.886.15 1.286.15.644 0 1.133-.151 1.472-.451.83-.74.455-2.094-.469-2.509-.575-.259-1.225-.245-1.844-.222-.156.008-.348.02-.444.04L6 31.447zm6.996-7.46v6.876c0 .316.024.526.068.628.043.103.113.181.205.234.092.052.264.081.516.081v.198h-2.491v-.198c.223 0 .376-.024.456-.073a.466.466 0 00.193-.238c.045-.109.068-.32.068-.632v-4.59c0-.571-.012-.921-.036-1.05-.025-.131-.065-.221-.12-.268a.307.307 0 00-.21-.072.934.934 0 00-.351.089l-.092-.195 1.556-.789h.238zm4.01 7.183c-.5.401-.703.633-.832.695-.19.093-.394.14-.61.14-.339 0-.617-.12-.835-.36-.219-.24-.328-.554-.328-.943 0-.247.053-.46.16-.641.145-.248.398-.484.758-.705.36-.22.848-.483 1.686-.8v-.199c0-.503-.076-.85-.23-1.037-.155-.186-.268-.287-.563-.287-.224 0-.402.063-.532.189a.57.57 0 00-.203.43l.011.319c0 .17-.042.3-.125.392a.42.42 0 01-.327.137.409.409 0 01-.325-.143.577.577 0 01-.125-.391c0-.317.156-.606.47-.872.313-.264.75-.398 1.316-.398.434 0 .788.075 1.066.226.21.115.364.294.464.537.064.158.095.48.095.97v1.714c0 .483.01.778.027.888.018.107.047.18.087.216a.206.206 0 00.142.056.273.273 0 00.15-.039c.074-.047.375-.105.588-.326v.309c-.397.552-.934.75-1.298.75-.173 0-.424-.061-.528-.188-.104-.124-.156-.338-.16-.64zm0-.31v-1.926c-.537.222-.77.331-.926.422-.282.16-.481.33-.601.508a.994.994 0 00-.182.579c0 .264.075.484.228.66.153.172.33.26.528.26.271.002.512-.136.952-.504zm6.543-.937c-.13.666-.388 1.178-.773 1.537-.383.359-.807.538-1.272.538-.555 0-1.04-.24-1.45-.724-.413-.481-.618-1.13-.618-1.952 0-.795.229-1.44.685-1.936.457-.497 1.004-.745 1.642-.745.48 0 .875.131 1.184.394.31.263.464.536.464.82 0 .14-.044.253-.13.34a.499.499 0 01-.366.13c-.21 0-.368-.07-.475-.21-.06-.078-.1-.226-.118-.442-.02-.217-.093-.382-.217-.497-.125-.11-.296-.164-.516-.164a1.04 1.04 0 00-.858.406c-.287.361-.432.838-.432 1.429 0 .603.142 1.136.43 1.597.285.461.67.693 1.158.693.347 0 .66-.123.936-.37.197-.17.386-.476.571-.922l.155.078zm2.47-5.906v5.174c.406-.52.96-1.015 1.31-1.564a.238.238 0 00.042-.132.254.254 0 00-.088-.193c-.058-.052-.154-.082-.29-.09v-.177l2.246-.009v.177a1.94 1.94 0 00-.725.138 2.303 2.303 0 00-.638.454l-1.006 1.092.981 1.639c.35.454.584.74.704.862.17.172.32.284.448.336.089.037.243.056.463.056v.198l-2.498.01v-.198c.136-.005.227-.027.274-.064a.196.196 0 00.073-.164c0-.085-.071-.22-.213-.407l-1.083-1.964v1.676c0 .328.023.544.067.646a.424.424 0 00.189.22c.082.045.152.07.425.074v.198l-2.7-.018v-.197c.25 0 .615-.032.739-.095a.396.396 0 00.171-.188c.053-.12.08-.332.08-.629V26.28c0-.585-.012-.944-.036-1.073-.025-.13-.067-.22-.124-.271a.328.328 0 00-.223-.073.944.944 0 00-.334.094l-.091-.195 1.594-.744h.243zm6.968 2.778v1.72h-.177c-.135-.54-.307-.907-.518-1.102-.213-.194-.482-.292-.808-.292-.25 0-.449.068-.601.205-.153.136-.23.286-.23.452 0 .206.057.382.17.53.11.15.334.31.672.48l.776.392c.722.363 1.083.843 1.083 1.44 0 .46-.168.829-.504 1.111a1.707 1.707 0 01-1.126.422c-.3 0-.64-.055-1.023-.165a1.025 1.025 0 00-.288-.055c-.082 0-.145.047-.193.144h-.175v-1.805h.175c.1.514.291.902.57 1.164.28.261.596.392.943.392a.83.83 0 00.6-.223c.155-.15.23-.33.23-.538a.867.867 0 00-.258-.64c-.17-.174-.514-.392-1.03-.658-.516-.263-.852-.502-1.012-.715-.16-.21-.24-.475-.24-.794 0-.417.139-.765.413-1.044.275-.28.631-.42 1.068-.42.193 0 .426.043.698.128.182.055.302.084.362.084a.208.208 0 00.135-.04.562.562 0 00.11-.171h.178v-.002zm3.018-1.78v1.993h1.14v.386h-1.14v3.197c0 .328.046.548.136.661a.419.419 0 00.347.172.6.6 0 00.342-.113.738.738 0 00.257-.333h.207c-.126.36-.3.63-.528.813-.226.183-.462.273-.703.273-.765 0-1.063-.741-1.063-1.353v-3.317h-.646v-.18c.194-.081.394-.219.598-.41.204-.194.387-.505.546-.769.082-.139.24-.547.341-1.02h.166zm4.277 1.77c.739 0 1.331.291 1.78.872.38.497.57 1.068.57 1.71 0 .455-.106.911-.315 1.374-.21.463-.498.814-.866 1.05a2.228 2.228 0 01-1.227.351c-.737 0-1.32-.303-1.754-.91a2.895 2.895 0 01-.548-1.72c0-.465.11-.924.332-1.382.222-.458.515-.796.877-1.016.361-.219.745-.329 1.15-.329zm-.166.36c-.187 0-.376.056-.566.172-.19.118-.345.32-.461.61-.118.29-.176.664-.176 1.12 0 .736.141 1.37.423 1.903.282.533.654.8 1.117.8.343 0 .627-.146.852-.44.224-.296.335-.8.335-1.517 0-.9-.185-1.605-.56-2.119-.25-.354-.573-.529-.964-.529zm4.658.712c.571-.714 1.326-1.072 1.845-1.072.53 0 1.095.385 1.277.889.078.22.115.559.115 1.015v2.157c0 .319.026.538.077.65a.45.45 0 00.189.217c.085.05.248.077.482.077v.198h-2.545v-.198h.102c.227 0 .388-.038.476-.11a.558.558 0 00.19-.316c.014-.054.02-.227.02-.518v-2.07c0-.458-.057-.792-.172-1-.116-.208-.311-.31-.583-.31-.422 0-1.054.238-1.472.716v2.665c0 .34.018.552.059.632a.49.49 0 00.204.235c.087.05.264.076.53.076v.198h-2.301v-.198h.107c.247 0 .416-.066.503-.196.086-.132.13-.38.13-.748V28.97c0-.606-.013-.975-.04-1.107-.026-.134-.067-.224-.122-.271a.332.332 0 00-.222-.072 1 1 0 00-.356.084l-.08-.2 1.358-.618h.23v1.072zm4.855 1.142c-.004.752.17 1.178.527 1.604.354.426.773.64 1.25.64.32 0 .6-.091.835-.274.237-.18.433-.494.593-.934l.166.11a2.666 2.666 0 01-.65 1.376c-.36.413-.809.621-1.347.621-.588 0-1.09-.235-1.506-.708-.418-.472-.626-1.108-.626-1.907 0-.864.213-1.54.642-2.02a2.058 2.058 0 011.611-.727c.548 0 .997.187 1.347.561.352.373.529 1.033.529 1.658h-3.371zm0-.32h2.259c-.029-.505-.05-1.022-.51-1.33a.99.99 0 00-.552-.177c-.294 0-.558.118-.79.355-.233.237-.37.73-.407 1.152z" fill="#fff"/><defs><linearGradient id="paint0_linear" x1="10.418" y1="9.712" x2="68.147" y2="76.017" gradientUnits="userSpaceOnUse"><stop stop-color="#1A1E21"/><stop offset="1" stop-color="#06060A"/></linearGradient></defs></svg>