<svg xmlns="http://www.w3.org/2000/svg" width="56" height="56" viewBox="0 0 56 56"><path fill="#F0F3FA" d="M0 0h56v56H0z"/><path d="M5.09 22c-.06.18-.1.36-.09.56 0 1.07.96 2.3 2.57 3.44-1.41-1.18-2.11-2.42-1.75-3.44.73-2.16 5.71-2.72 11.13-1.12 1.5.45 2.86.95 4.05 1.56a23.05 23.05 0 0 0-4.77-2.06C10.8 19.34 5.82 19.84 5.09 22Z" fill="#083473"/><path d="M11 26.8c-1.92-1-2.7-2.13-2.7-3.18 0-.82 1.07-1.42 2.33-1.62-1.6.12-3.13.7-3.13 1.78 0 1.1.94 2.19 3 3.22l.5-.2Z" fill="#0C8F9C"/><path d="M13.06 23c.8 0 1.8.14 2.94.53 1.25.42 2.32 1 3 1.64a8.76 8.76 0 0 0-2.68-1.37c-2.41-.78-4.64-.57-4.97.5-.15.5.02 1.12.65 1.7-.67-.54-1-1.12-1-1.63 0-1.04 1.22-1.37 2.06-1.37Z" fill="#EC6C47"/><path d="M16.96 26.05c-.12.32-.48.45-.95.45A4.98 4.98 0 0 1 13 25.3c.3.27.8.5 1.21.63 1.1.4 2.2.27 2.36-.1.3-.72-.7-1.15-1.26-1.33.33.08.66.2.97.37.52.33.72.67.72.96 0 .08-.01.15-.04.22Z" fill="#FFD200"/><path d="M8.6 28.02c.12.12.28.2.43.18.27 0 .47-.15.47-.33 0-.32-.71-.87-1.9-.87-1.65 0-2.6.89-2.6 1.98C5 30.03 5.82 31 7.64 31c1.17 0 1.8-.47 1.8-.7 0-.1-.12-.17-.27-.17-.1 0-.2.04-.3.1-.3.15-.64.27-.97.27-.95 0-1.9-.66-1.9-1.72 0-.87.77-1.28 1.52-1.28.44-.02.84.1 1.08.52ZM15 28.9c-.06-1.01-.92-1.9-2.48-1.9-1.6 0-2.52.89-2.52 2 0 1.32 1.17 2 2.5 2 1.5.01 2.57-.89 2.5-2.1Zm-1 .02c0 .88-.6 1.58-1.48 1.58-.9 0-1.52-.7-1.52-1.54 0-.82.67-1.5 1.52-1.47.8 0 1.48.55 1.48 1.43ZM29.16 29.2c.15 0 .24-.04.24-.13v-.23c0-.1-.1-.14-.22-.14H27.4v-1.2h2.1c.14 0 .21 0 .2-.12v-.27c.01-.11-.09-.11-.2-.11h-2.9c-.15 0-.2.03-.2.15v3.73c0 .12.06.12.2.12h2.9c.14 0 .19-.02.2-.08v-.32c0-.11-.08-.1-.2-.1h-2.1v-1.3h1.76ZM39.82 27.5c.14 0 .18-.03.18-.12v-.27c0-.1-.06-.11-.18-.11h-3.64c-.12 0-.18.01-.18.12v.26c0 .1.04.12.18.12h1.32v3.36c0 .1.04.14.19.14h.69c.13 0 .12-.05.12-.14V27.5h1.32ZM40.6 30.89c0 .1.06.11.18.11h.66c.15 0 .16-.02.16-.13v-1.4c0-.05.08-.16.24-.16.06 0 .11 0 .16.03s.1.07.13.12l1.23 1.44c.08.1.1.1.26.1h.83c.06 0 .15 0 .15-.07 0-.03-.03-.08-.06-.1l-1.52-1.66c.56-.12 1.28-.44 1.28-1.06 0-.32-.18-.62-.55-.82a3.68 3.68 0 0 0-1.68-.28h-1.34c-.1 0-.13.07-.13.2v3.68Zm1-3.38h.44c.31 0 1.16-.05 1.16.7 0 .52-.5.72-1 .77l-.6.03v-1.5ZM46.5 27.12c0-.1-.05-.12-.16-.12h-.69c-.13 0-.15.04-.15.12v3.75c0 .11.05.13.16.13h.68c.1 0 .16-.02.16-.13v-3.75ZM50.67 30.9c.1.1.13.1.31.1h.84c.07 0 .18 0 .18-.08 0-.03-.02-.06-.05-.09l-1.9-2.03 1.6-1.63c.03-.03.05-.06.05-.1 0-.07-.11-.07-.17-.07h-.65c-.17 0-.18 0-.3.1l-1.08 1.16-1.07-1.14c-.1-.1-.12-.11-.32-.11h-.84c-.06 0-.13 0-.13.07 0 .03.02.06.04.08l1.6 1.8-1.66 1.78c-.07.06-.12.12-.12.18 0 .08.13.08.2.08h.53c.06 0 .17 0 .22-.02.05-.02.1-.05.13-.1l1.34-1.46 1.25 1.47Z" fill="#083473"/><path d="M24 26c-1.01-1.31-3.2-2.74-6.27-3.59A26.6 26.6 0 0 0 10 21.4c1.9.05 4 .3 6.58.96 3.25.84 5.4 2.29 6.42 3.64h1Z" fill="#BCD031"/><path d="M16.74 27.12a.33.33 0 0 0-.13-.1c-.05-.02-.1-.01-.16-.01h-.66c-.11 0-.19.01-.19.12v3.75c0 .1.07.12.13.12h.74c.1 0 .13-.03.13-.12v-2.73l2.8 2.73.1.1.13.02h.61c.13 0 .16-.05.16-.14v-3.72c0-.09-.04-.14-.17-.14h-.66c-.15 0-.18.07-.18.14v2.68l-2.65-2.7ZM31.64 27.11a.33.33 0 0 0-.13-.1H30.69c-.11 0-.19.01-.19.12v3.75c0 .1.07.12.13.12h.74c.1 0 .13-.03.13-.12v-2.74l2.8 2.74c.03.04.06.07.1.09l.13.03h.61c.13 0 .16-.05.16-.14v-3.72c0-.1-.04-.14-.17-.14h-.66c-.15 0-.18.06-.18.14v2.68l-2.65-2.7ZM24.6 28.02c.11.12.27.2.42.18.26 0 .48-.15.48-.33 0-.32-.72-.87-1.9-.87-1.65 0-2.6.89-2.6 1.98 0 1.05.81 2.02 2.63 2.02 1.17 0 1.8-.47 1.8-.69 0-.1-.12-.18-.27-.18-.1 0-.2.04-.3.1-.3.15-.63.28-.96.27-.95 0-1.9-.56-1.9-1.62 0-.87.77-1.38 1.51-1.38.45-.02.84.11 1.08.52Z" fill="#083473"/></svg>