<svg xmlns="http://www.w3.org/2000/svg" width="56" height="56"><path fill="#E80033" d="M0 0h56v56H0z"/><path fill-rule="evenodd" d="M27.98 20l5.4 1.79L52 27.93 27.98 36 4 27.96 27.98 20zm-1.84 8.04c0 .88.87 1.42 1.88 1.42 1.06 0 1.89-.58 1.89-1.42 0-.85-.83-1.46-1.89-1.46-1.05 0-1.88.57-1.88 1.46zm-1.62 0c0-1.85 1.5-3.04 3.54-3.04 1.96 0 3.54 1.23 3.54 3.04-.03 1.88-1.65 2.96-3.58 2.96-1.92 0-3.5-1.12-3.5-2.96zm6.97-2.27h2.96v.37h-.15c-.15 0-.3.12-.33.27a.35.35 0 000 .37l.88 2.15 1.22-3.16h1.63l1.26 3.16.92-2.22a.3.3 0 00-.07-.3c-.08-.12-.19-.2-.3-.2h-.18v-.37h2.91v.38h-.18c-.15 0-.3.07-.4.19a.6.6 0 00-.27.34l-1.44 3.38a.53.53 0 000 .34c.08.08.15.15.26.15h.22V31h-2.92v-.34h.23c.1 0 .18-.07.22-.15a.33.33 0 000-.26l-1.07-2.49-1.04 2.45a.24.24 0 00-.03.26c.03.08.1.15.22.15h.1V31h-2.87v-.38h.14c.11 0 .23-.07.26-.15a.29.29 0 000-.34l-1.44-3.5c-.04-.15-.11-.26-.26-.3a.415.415 0 01-.13-.07c-.07-.04-.13-.08-.2-.08h-.15v-.41zM18.24 29.6h2.3a1.74 1.74 0 001.5-1.88c-.1-1.31-.69-1.84-1.68-1.84h-2.12v3.72zM16 24.54h4.4c1.39 0 3.18 1.28 3.26 3.2A3.28 3.28 0 0120.47 31H16v-.37h.26c.14 0 .25-.08.33-.19.07-.04.1-.19.1-.3v-4.81a.51.51 0 00-.47-.41H16v-.38z" fill="#fff"/></svg>