<svg width="56" height="56" xmlns="http://www.w3.org/2000/svg"><path fill="#083278" d="M0 0h56v56H0z"/><path d="M31.125 28.99s-.167-.516-.306-.83c-.417.031-4.914 1.759-8.337 4.147a36.015 36.015 0 002.908-.44c2.859-1.914 5.735-2.876 5.735-2.876zM19.215 35.444c-.595.954-.82 1.936-.448 2.906.075.11.93 2.657 1.042 2.84-.236-2.039.364-3.824 1.393-5.354a9.87 9.87 0 01-1.987-.392zM28.445 21.464s-.168-.515-.308-.829c-.41.032-4.804 1.715-8.21 4.06a38.556 38.556 0 002.912-.442c2.817-1.855 5.607-2.789 5.607-2.789zM16.56 27.878c-.614.965-.85 1.963-.472 2.947.073.11.928 2.655 1.041 2.839-.242-2.077.388-3.889 1.452-5.437-.733-.06-1.41-.177-2.02-.349z" fill="#B9C3CD"/><path d="M13.183 23.189c.075.112.93 2.656 1.043 2.84-.941-8.105 11.315-12.2 11.315-12.2s-.166-.517-.306-.829c-.728.055-13.932 5.284-12.052 10.189z" fill="#B9C3CD"/><path d="M13.22 23.153c.224.663.67 2.287.968 2.876 3.946 4.944 23.228-1.806 23.228-1.806s-1.264-3.432-1.562-4.095c-.857.295-18.968 6.952-22.633 3.025zM18.804 38.314c.223.662.67 2.287.967 2.876C23.717 46.134 43 39.383 43 39.383s-1.266-3.431-1.563-4.093c-.856.294-18.965 6.953-22.633 3.024zM35.512 33.334c-5.983 1.65-15.74 3.689-18.42.33-.297-.588-.746-2.211-.968-2.876 2.543 2.724 12.004.22 17.868-1.587l1.52 4.133z" fill="#fff"/></svg>