<svg width="56" height="56" xmlns="http://www.w3.org/2000/svg"><path fill="#124B88" d="M0 0h56v56H0z"/><path d="M28.436 17.602c-1.672.534-2.69 1.4-3.127 2.4-.145.334-.29.733-.29 1.133v2.77c0 .267-.146.467-.364.534-.146.067-.291.133-.364.2l-.364.133L12 29v15h8v-1.467l5.6-2.066.436-.133a4.44 4.44 0 001.091-.6c.8-.534 1.891-1.4 1.891-2.867v-2.533L44 29V12.003l-15.564 5.6z" fill="#F6F8FD"/><path d="M18 33.526c2.69-.934 5.273-1.857 7.964-2.924.363-.2.745-.405 1.036-.738v2.133c-.073.667-.673 1.205-1.327 1.405-2.473 1-4.982 1.857-7.673 2.79v-2.666zm11.236-14.39c-1.6.534-2.232 1.137-2.232 2.27v2.334c0 1.6-2.35 2.263-2.35 2.263L12 30.469V44h5.997v-2.733l6.73-2.533S27 38.067 27 36.534c0 0 0-1.4.073-2.333.072-.867.418-1.466 1.509-1.932L42 27.316v-5L29.018 27.07c-1.672.6-2.018 1.265-2.018 1.265v-2.267c0-.2.055-.998 2.382-1.864L42 19.628v-5.133l-12.764 4.642z" fill="#D11F44"/></svg>