<svg width="56" height="56" fill="none" xmlns="http://www.w3.org/2000/svg"><path fill="#F0F3FA" d="M0 0h56v56H0z"/><path d="M27 36h11v-2.5H27V36z" fill="url(#paint0_linear_143)"/><path fill-rule="evenodd" clip-rule="evenodd" d="M18 23.25A3.25 3.25 0 0121.25 20H25v11.25A4.75 4.75 0 0120.25 36H19v-2.5h1.25a2.25 2.25 0 002.25-2.25v-.246h-1.25a3.25 3.25 0 01-3.25-3.25V23.25zm4.5 5.254V22.5h-1.25a.75.75 0 00-.75.75v4.504c0 .415.336.75.75.75h1.25z" fill="url(#paint1_linear_143)"/><path d="M27 20v11h2.5v-8.5h1.788V31h2.5v-8.5h.962a.75.75 0 01.75.75V31H38v-7.75A3.25 3.25 0 0034.75 20H27z" fill="url(#paint2_linear_143)"/><path fill-rule="evenodd" clip-rule="evenodd" d="M12 17a5 5 0 015-5h22a5 5 0 015 5v22a5 5 0 01-5 5H17a5 5 0 01-5-5V17zm5-3h22a3 3 0 013 3v22a3 3 0 01-3 3H17a3 3 0 01-3-3V17a3 3 0 013-3z" fill="url(#paint3_linear_143)"/><defs><linearGradient id="paint0_linear_143" x1="28" y1="12" x2="28" y2="44" gradientUnits="userSpaceOnUse"><stop stop-color="#4ADEFF"/><stop offset="1" stop-color="#0E8ED5"/></linearGradient><linearGradient id="paint1_linear_143" x1="28" y1="12" x2="28" y2="44" gradientUnits="userSpaceOnUse"><stop stop-color="#4ADEFF"/><stop offset="1" stop-color="#0E8ED5"/></linearGradient><linearGradient id="paint2_linear_143" x1="28" y1="12" x2="28" y2="44" gradientUnits="userSpaceOnUse"><stop stop-color="#4ADEFF"/><stop offset="1" stop-color="#0E8ED5"/></linearGradient><linearGradient id="paint3_linear_143" x1="28" y1="12" x2="28" y2="44" gradientUnits="userSpaceOnUse"><stop stop-color="#4ADEFF"/><stop offset="1" stop-color="#0E8ED5"/></linearGradient></defs></svg>