<svg xmlns="http://www.w3.org/2000/svg" width="56" height="56" viewBox="0 0 56 56"><path fill="#F0F3FA" d="M0 0h56v56H0z"/><path d="M49 28.46A7.45 7.45 0 0 1 41.48 36 7.39 7.39 0 0 1 34 28.5c0-4.14 3.22-7.5 7.52-7.5 4.3 0 7.48 3.32 7.48 7.46Zm-4 .04c0-2.1-1.4-3.9-3.52-3.9-2.13 0-3.48 1.78-3.48 3.86s1.4 3.93 3.52 3.93c2.1 0 3.48-1.8 3.48-3.89Z" fill="#FF3A00"/><path d="m30.38 28.3 4.97 7.7h-4.62l-2.77-4.54-2.8 4.54h-4.51l4.97-7.63L20.86 21h4.61l2.55 4.22 2.6-4.22h4.52l-4.76 7.3ZM14.5 21C10.2 21 7 24.3 7 28.5v.04C7 32.91 10.23 36 14.58 36c2.56 0 4.6-.97 6.07-2.25v-6.32h-5.03L13.67 30H17v2.19s-1 .81-2.26.81C12.53 33 11 30.85 11 28.5c0-2.2 1-4.5 3.5-4.5 1.23 0 1.76.45 2.48.9L19 22.2a8.16 8.16 0 0 0-4.5-1.2Z" fill="#FF3A00"/></svg>