<svg width="56" height="56" xmlns="http://www.w3.org/2000/svg"><path fill="#4F7BA8" d="M0 0h56v56H0z"/><path fill-rule="evenodd" d="M4 24h1v7H4v-7zm42 7v-7h1l4 5.6V24h1v7h-1l-4-5.6V31h-1zm-20-7l3 7h-1l-.857-2h-3.286L23 31h-1l3-7h1zm-.5 1.167L26.714 28h-2.428l1.214-2.833zM34 24h1v3h4v-3h1v7h-1v-3h-4v3h-1v-7zm-22 4c0-1.792 1.183-3 2.5-3 .507 0 1.001.224 1.427.617l.678-.735C16.04 24.36 15.313 24 14.5 24c-1.997 0-3.5 1.792-3.5 4a3.5 3.5 0 005.962 2.488l-.703-.711A2.5 2.5 0 0112 28z" fill="#fff"/></svg>