<svg xmlns="http://www.w3.org/2000/svg" width="56" height="56"><path fill="#F0F3FA" d="M0 0h56v56H0z"/><path d="M39.45 16.8l-.17-.16-.17-.16-.17-.18-.18-.16-.47.22-.45.24-.45.24-.44.25-.42.25-.42.26-.4.27-.39.27-.38.29-.37.29-.36.29-.35.3-.34.3-.32.32-.32.32-.3.33.08.51.06.52.06.53.06.53.05.52.03.53.05.54.02.53.02.47v.46l.02.46v.45l-.01.45v.44l-.02.43-.02.44-.02.43-.04.42-.03.42-.04.41-.05.41-.05.41-.06.4-.06.39-.06.4-.07.38-.07.38-.08.37-.09.38-.08.36-.1.37-.1.35-.1.36-.11.35-.11.34-.12.33-.12.35-.13.32-.12.33-.14.31.21.35.21.33.24.33.22.33.25.31.25.32.27.31.27.32.29.29.29.3.3.29.32.28.33.28.34.26.34.27.35.26.21-.11.2-.12.2-.11.2-.12.2-.13.19-.13.2-.12.18-.13-.27-.33-.26-.32-.26-.33-.23-.34-.24-.33-.23-.35-.2-.35-.21-.35-.2-.36-.2-.36-.18-.36-.17-.37-.16-.37-.15-.38-.14-.38-.14-.38-.12-.38-.12-.4-.1-.38-.1-.4-.09-.39-.08-.4-.07-.4-.05-.4-.05-.42-.04-.4-.03-.41-.03-.42v-1.25l.02-.43.03-.45.05-.45.06-.45.07-.44.07-.44.1-.44.1-.44.11-.42.13-.42.13-.42.16-.42.16-.4.17-.41.18-.4.2-.4.2-.4.21-.37.22-.39.23-.37.25-.37.26-.36.26-.36.27-.35.28-.35.29-.34.3-.33.31-.34.31-.3.33-.33.33-.3.35-.3.34-.31z" fill="#29B582"/><path d="M35.73 13.96l-.21-.11-.22-.12-.22-.1-.21-.12-.46.22-.45.22-.43.23-.43.23-.42.25-.42.26-.4.26-.41.27.08.27.08.28.07.27.08.28.07.28.06.28.07.28.07.29.44-.5.45-.48.47-.48.45-.47.47-.46.48-.45.46-.44.48-.44zm-4.64 29.81l.25-.06.26-.05.24-.05.25-.08.24-.06.25-.08.24-.07.24-.08-.4-.45-.38-.45-.4-.48-.37-.48-.38-.49-.37-.5-.35-.52-.35-.51-.18.3-.18.3-.18.29-.19.29-.19.28-.2.27-.19.27-.2.27.29.28.3.28.31.28.32.27.31.26.34.26.33.26.34.25z" fill="#00B5C2"/><path d="M43.58 24.34l-.31.26-.3.28-.26.3-.27.29-.12.15-.13.15-.11.16-.12.15-.11.17-.12.16-.1.16-.1.16-.1.17-.09.18-.09.16-.09.17-.09.18-.07.17-.07.19-.07.19-.07.17-.06.19-.06.18-.06.2-.05.18-.05.2-.03.19-.05.18-.03.22-.03.2-.02.21-.02.22-.01.2-.01.21v.62l.02.22.02.2.02.21.02.2.04.2.03.21.05.2.05.2.06.21.05.2.07.2.06.2.07.2.08.2.08.2.09.18.08.2.1.2.09.18.1.2.11.18.1.2.13.18.25-.45.24-.46.11-.23.11-.23.1-.23.11-.25.1-.23.09-.25.1-.23.08-.25.08-.25.08-.26.08-.24.07-.25.06-.26.06-.27.07-.24.06-.27.04-.26.05-.26.04-.26.04-.27.03-.26.03-.27.03-.27.02-.27.01-.27.02-.28v-.27l.01-.28v-.47l-.03-.46-.03-.47-.05-.46-.06-.46-.08-.46-.08-.44-.1-.45z" fill="#7DBA00"/><path d="M38.65 29.35l.04-.29.03-.3.04-.28.05-.3.05-.28.06-.3.06-.28.07-.3.07-.28.08-.29.08-.28.08-.3.1-.28.1-.28.1-.28.11-.28.11-.28.12-.28.11-.28.13-.27.14-.27.13-.27.16-.26.14-.26.16-.27.16-.25.16-.25.16-.25.18-.25.19-.24.17-.23.2-.23-.13-.24-.11-.23-.13-.22-.13-.22-.37.2-.35.22-.36.22-.34.24-.33.23-.33.24-.31.25-.3.26-.3.26-.29.27-.28.28-.26.28-.26.28-.25.3-.24.3-.22.31-.22.32-.21.31-.2.33-.17.33-.18.34-.16.34-.16.34-.13.36-.13.36-.12.35-.1.38-.09.38-.07.36-.07.4-.05.37-.05.4-.02.36-.01.33v.7l.02.35.04.35.04.35.06.33.06.35.08.34.09.33.1.35.1.33.12.34.12.32.14.32.14.33.16.32.15.31.18.32.18.3.2.3.18.3.21.3.22.29.22.29.23.28.23.28.25.26.25.26.26.26.26.25.16-.16.16-.16.16-.16.16-.17.16-.16.15-.17.15-.18.15-.17-.13-.25-.12-.25-.12-.26-.11-.25-.1-.26-.12-.26-.1-.26-.09-.27-.1-.26-.08-.26-.08-.28-.07-.26-.07-.28-.06-.27-.07-.28-.05-.28-.05-.28-.05-.28-.04-.29-.03-.29-.03-.28-.03-.29-.02-.3-.01-.28-.01-.3v-.9l.02-.3.02-.3.02-.31.03-.3z" fill="#54B840"/><path d="M16.86 16.46l-.26.25-.25.26-.25.26-.23.28-.24.26-.23.3-.22.28-.2.29-.22.3-.2.3-.2.31-.18.3-.18.32-.18.32-.17.33-.15.33-.16.33-.15.33-.13.35-.13.34-.12.35-.12.35-.1.35-.1.36-.1.37-.07.36-.08.37-.07.37-.05.37-.05.38-.04.38-.03.38.24-.24.25-.25.23-.27.23-.26.22-.28.22-.29.22-.29.2-.3.2-.3.2-.3.18-.32.18-.33.17-.32.18-.34.15-.33.16-.34.15-.34.15-.35.13-.35.13-.35.12-.35.13-.35.1-.36.12-.36.1-.36.09-.36.07-.36.08-.36.08-.36.06-.36.06-.35.06-.35z" fill="#00B8E0"/><path d="M20 14.08l-.17.1-.18.12-.19.1-.17.13-.16.67-.15.65-.16.64-.16.64-.17.6-.16.61-.19.59-.18.58-.2.56-.19.56-.2.54-.2.53-.21.52-.22.5-.22.5-.23.48-.23.48-.24.46-.23.46-.25.44-.24.43-.26.44-.25.41-.26.42-.27.4-.26.38-.28.39-.27.37-.28.38-.28.36-.29.35-.3.35.06.3.04.3.06.3.06.3.07.3.07.3.07.28.09.29.6-.4.57-.41.54-.46.5-.46.5-.5.45-.51.42-.53.41-.56.38-.56.35-.6.33-.59.3-.6.3-.63.25-.63.23-.63.22-.65.2-.64.17-.65.16-.65.13-.65.12-.65.1-.65.08-.64.07-.62.05-.63.04-.61.01-.61.02-.58-.02-.58v-.56l-.04-.55-.05-.52z" fill="#0399CC"/><path d="M33.33 24.8l-.03-.44-.02-.42-.03-.43-.03-.43-.05-.41-.03-.43-.05-.42-.06-.41-.05-.41-.05-.42-.07-.41-.07-.4-.07-.41-.07-.4-.1-.42-.07-.39-.09-.4-.1-.39-.09-.4-.1-.38-.1-.39-.1-.38-.11-.38-.12-.38-.11-.37-.13-.38-.12-.37-.12-.37-.14-.35-.13-.37-.13-.36-.15-.35-.23-.04-.23-.02-.24-.03-.23-.02.12 1.14.11 1.14.1 1.13.07 1.13.05 1.12.04 1.11.01 1.12V21l-.03 1.09-.05 1.08-.06 1.08-.1 1.05-.1 1.05-.14 1.04-.17 1.03-.18 1-.21 1-.24.98-.27.96-.28.95-.32.92-.34.92-.37.89-.4.86-.43.85-.46.83-.5.8-.52.79-.54.75-.59.74-.62.7-.65.68.25.09.23.09.25.08.24.08.25.07.25.07.25.06.25.07.25.05.25.05.26.06.26.04.26.04.26.04.27.03.26.03.4-.38.4-.38.38-.4.37-.4.36-.43.35-.45.35-.45.32-.48.32-.48.3-.5.29-.52.28-.54.27-.54.25-.56.24-.59.22-.58.22-.6.2-.63.17-.64.18-.66.14-.66.15-.69.12-.7.1-.7.1-.73.07-.74.06-.76.04-.77.02-.8v-1.62l-.02-.83z" fill="#08338F"/><path d="M26.8 12l-.22.01-.23.03-.24.02-.22.03.03.76v2.44l-.04.85-.03.88-.05.9-.08.91-.08.92-.1.94-.12.95-.14.95-.16.95-.19.96-.2.97-.23.95-.25.96-.28.95-.3.94-.32.93-.35.91-.39.9-.4.89-.45.86-.48.85-.5.81-.54.8-.57.77-.6.74-.64.7-.67.67-.72.64.27.26.29.24.28.24.3.23.29.22.3.22.3.21.32.2.92-.65.86-.71.8-.73.75-.77.7-.8.64-.83.6-.86.53-.88.5-.9.44-.92.4-.95.35-.96.31-.96.28-1 .23-.98.19-1.02.16-1 .11-1.02.08-1.03.05-1.01.02-1.02-.01-1.02-.04-1-.08-1.01-.09-1-.12-.98-.14-.97-.16-.96-.2-.93-.2-.92-.23-.9-.23-.87z" fill="#0554A3"/><path d="M23.26 12.66l-.2.07-.2.06-.2.07-.2.07-.04.76-.06.77-.07.77-.08.78-.1.77-.1.77-.12.77-.13.77-.14.76-.16.77-.17.76-.18.75-.21.76-.22.74-.23.74-.24.73-.27.73-.28.71-.3.7-.32.71-.33.68-.35.68-.38.66-.38.65-.42.65-.43.62-.46.61-.47.6-.5.58-.5.56-.54.55-.57.53.15.3.16.28.16.29.18.28.18.28.18.27.18.26.19.27.76-.49.71-.53.69-.57.65-.59.6-.63.58-.67.54-.68.5-.72.46-.74.44-.77.4-.78.38-.8.33-.82.3-.84.29-.84.24-.86.21-.86.2-.88.15-.87.14-.88.1-.89.07-.88.06-.87.02-.88v-.86l-.02-.85-.05-.85-.07-.83-.1-.82-.11-.8-.14-.78-.16-.76z" fill="#0575B8"/></svg>