<svg width="56" height="56" xmlns="http://www.w3.org/2000/svg"><path fill="url(#paint0_linear)" d="M0 0h56v56H0z"/><path d="M28.538 31.865c-.975 0-1.548-.481-1.617-1.805V30h4.248v-.36c0-2.375-.968-3.932-2.726-3.932-1.365 0-2.951.953-2.951 3.645 0 2.282 1.11 3.645 2.977 3.645a3.254 3.254 0 001.52-.393 3.132 3.132 0 001.137-1.05l-.901-.63c-.44.563-.9.94-1.687.94zM28.427 27c1.062 0 1.389 1.154 1.389 2H26.93c.06-.807.46-2 1.496-2zm14.763 4.865c-1.14 0-1.61-.87-1.61-1.865h4.243v-.36c0-2.375-.968-3.932-2.726-3.932-1.36 0-2.947.953-2.947 3.645 0 2.282 1.111 3.645 2.976 3.645a3.26 3.26 0 001.517-.394 3.14 3.14 0 001.137-1.05l-.894-.633c-.447.567-.909.944-1.696.944zm-.112-4.832c1.035 0 1.391 1.081 1.391 1.967h-2.882c.067-.876.46-1.967 1.491-1.967zm-29.795 4.832c-.97 0-1.541-.481-1.61-1.805V30h4.24v-.36c0-2.375-.968-3.683-2.725-3.683-1.36 0-2.95.704-2.95 3.396 0 2.282 1.114 3.645 2.976 3.645a3.253 3.253 0 001.518-.393 3.131 3.131 0 001.136-1.05l-.901-.63c-.435.563-.894.94-1.684.94zm-.11-4.75c1.036 0 1.39 1.042 1.39 1.927H11.68c.097-.874.444-1.927 1.494-1.927zm-5.686 3.307c0 1.08-.642 1.306-1.19 1.306a3.227 3.227 0 01-1.64-.541l-.628 1.054c.72.474 1.571.728 2.442.728 1.635 0 2.529-.87 2.529-2.452v-7.511H7.487v7.416zm14.63-5.497V26h-3.002v-.97c0-.796.564-.888.987-.888.069 0 .29 0 .412.02v-1.127c-.115 0-.495-.035-.745-.035-1.444 0-2.117.61-2.117 1.916V26h-1.051v.942h1.051V33h1.463v-6.04h3.002V33h1.462v-6.04H25V26h-1.42v-.97c0-.796.566-.888.992-.888.07 0 .29 0 .412.02v-1.127c-.114 0-.497-.035-.745-.035-1.45.01-2.121.62-2.121 1.925zm12.004 2.03H34V26h-1.463v7H34v-4.858c.2-.346.49-.634.843-.836.46-.264.64-.316 1.157-.316 0-.1.033-1.185.038-1.289-.21 0-.603.099-1.007.331-.382.22-.696.54-.91.924zm3.404-2.322H39V23.31h-1.475v1.322zM37.54 33H39v-7h-1.46v7zm11.804-.002c1.277 0 2.657-.633 2.657-2.022 0-1.46-1.19-1.842-2.22-2.18-.789-.256-1.538-.5-1.538-1.2 0-.513.38-.797 1.073-.797.32.015.634.094.921.234.287.14.54.336.743.577l.859-.755a3.206 3.206 0 00-1.119-.85 3.31 3.31 0 00-1.388-.302c-1.475 0-2.464.79-2.464 1.967 0 1.439 1.19 1.828 2.214 2.169.8.265 1.556.513 1.556 1.227 0 .555-.45.861-1.265.861a2.808 2.808 0 01-1.13-.27 2.724 2.724 0 01-.911-.701l-.88.718c.338.428.777.771 1.28 1.002a3.59 3.59 0 001.612.322z" fill="#fff"/><defs><linearGradient id="paint0_linear" x1="10.418" y1="9.712" x2="68.147" y2="76.017" gradientUnits="userSpaceOnUse"><stop stop-color="#1A1E21"/><stop offset="1" stop-color="#06060A"/></linearGradient></defs></svg>