<svg width="56" height="56" xmlns="http://www.w3.org/2000/svg"><path fill="#E30613" d="M0 0h56v56H0z"/><path d="M30.094 17.591c-.113-.227-.143-.362-.265-.584-.512.975-.836 2.098-1.176 3.15 2.717 7.407 1.35 18.708-5.398 23.708-.036.027-.07.055-.107.081v.044c11.05-3.792 9.735-19.888 6.946-26.399z" fill="#fff"/><path d="M31.998 13.637c-.399.445-.77.914-1.114 1.404 4.744 7.98 4.282 22.685-2.776 28.827l-.106.081v.044c11.835-3.604 10.69-24.677 3.996-30.356z" fill="#fff"/><path d="M32.85 12v.043c8.35 6.526 8.197 25.51 0 31.903v.044c12.555-.328 11.957-31.947 0-31.99zM19.465 13.378c-1.407 1.085-2.463 2.605-3.252 4.207a21.362 21.362 0 00-1.912 6.262 27.703 27.703 0 00-.3 4.148 27.86 27.86 0 00.301 4.147c.313 2.18.958 4.296 1.911 6.27.794 1.6 1.85 3.122 3.257 4.21 1.05.81 2.366 1.343 3.685 1.378v-.043c-8.853-6.812-7.422-26.372-.004-31.914V12c-1.32.034-2.636.568-3.686 1.378z" fill="#fff"/><path d="M28 44v-.043c-8.854-6.812-7.219-26.514-.004-31.914V12c-11.803.237-12.183 31.66.004 32z" fill="#fff"/><path d="M32.91 44v-.043c-8.852-6.812-6.89-26.417-.003-31.914V12c-11.62.043-12.183 31.66.004 32z" fill="#fff"/><path d="M28.85 42.352c.399-.444.77-.913 1.114-1.404-.12-.17-.237-.34-.35-.51-.123-.189-.23-.383-.344-.58a12.002 12.002 0 01-1.273 1.671c.267.29.551.564.85.82M31.474 42.764a6.876 6.876 0 01-1.05.622 6.05 6.05 0 002.425.604v-.043c-.49-.355-.949-.75-1.374-1.183zM27.543 43.957c.131-.014.262-.037.393-.06a9.757 9.757 0 01-.393-.301c-.32-.26-.626-.538-.917-.832a6.928 6.928 0 01-1.05.622c.502.238 1.031.41 1.575.511.13.023.26.046.392.06zm.458.033v-.043c-.022-.017-.043-.035-.066-.05a5.246 5.246 0 01-.392.06c.152.017.306.03.458.033zM27.15 13.639c-.399.445-.77.913-1.114 1.404.12.17.236.34.349.51.123.19.23.413.346.61.375-.595.8-1.232 1.272-1.75-.267-.29-.551-.515-.85-.77M24.527 13.226a6.88 6.88 0 011.05-.622A6.062 6.062 0 0023.15 12v.043c.49.355.95.75 1.376 1.184zM30.425 12.604a6.418 6.418 0 00-1.575-.51c-.135-.024-.258-.047-.392-.06A5.471 5.471 0 0028 12v.043c.022.017.043.035.066.05a11 11 0 01.392.3c.32.26.626.539.917.833a6.939 6.939 0 011.05-.622z" fill="#fff"/></svg>