<svg width="56" height="56" xmlns="http://www.w3.org/2000/svg"><path fill="#5C165F" d="M0 0h56v56H0z"/><path d="M14.775 34L9.31 27.685 6 30.353V34H4V22h2v6.213L13.85 22h2.717l-5.812 4.54 6.44 7.46h-2.42zm17.988 0l-5.465-6.315L24 30.353V34h-2V22h2v6.213L31.837 22h2.718l-5.813 4.54L35.184 34h-2.42zm17.051 0l-3.077-5H41v5h-2V22h9.072c2.388 0 3.831 1.284 3.831 3.604 0 2.12-1.256 2.999-2.952 3.296L52 34h-2.187zm.16-8.396c0-1.327-.773-1.604-2.355-1.604H41v3h6.788c1.413 0 2.185-.22 2.185-1.396z" fill="#fff"/></svg>