<svg width="56" height="56" xmlns="http://www.w3.org/2000/svg"><path fill="#E5F0DF" d="M0 0h56v56H0z"/><path d="M4 24h3v2.75h.021L9.83 24h3.694l-3.326 3.373L14 32H9.83L7.02 28.726H7V32H4v-8zM18.847 30.438c1.474 0 1.377-1.892 1.377-2.517s.016-2.358-1.377-2.358c-1.394 0-1.377 1.733-1.377 2.358s-.098 2.517 1.377 2.517zm0-6.438c3.763 0 4.787.908 4.787 4 0 3.093-1.024 4-4.787 4-3.764 0-4.787-.907-4.787-4 0-3.092 1.023-4 4.787-4zM31 29v3h3v-8h-3v3h-3v-3h-3v8h3v-3h3zM36 24h3v6s3.054.01 3.423.01c.37 0 .588-.405.588-.405V32H36v-8zM51 26.554c-.72-.646-1.209-.864-1.873-.876-.648-.012-1.241.24-1.241.683 0 .35.443.494 1.993.856 1.273.3 2.121 1.028 2.121 2.385C52 31.134 49.727 32 47.693 32c-1.427 0-2.712-.288-3.693-.781v-2.056c.606.709 2.151 1.085 3.19 1.085.577 0 .86-.095.86-.609 0-.318-.36-.608-1.448-.831-2.062-.424-2.758-1.085-2.758-2.216 0-1.625 1.802-2.592 4.022-2.592 1.197 0 2.167.042 3.134.546v2.008z" fill="#74B64C"/><path d="M41.073 27c.087-.186.238-.469.238-.469-.717-.395-.929-1.402-.565-1.976.392-.617 1.48-.882 2.068.074.852 1.389-.985 2.316-1.741 2.371z" fill="#74B64C"/></svg>