<svg width="56" height="56" xmlns="http://www.w3.org/2000/svg"><path fill="#F0F3FA" d="M0 0h56v56H0z"/><path d="M4.378 37c2.706-1.881 10.296-6.036 18.809-6.036h1.04c-7.194.756-13.504 3.801-16.32 6.036h1.365c2.668-1.604 10.096-5.182 18.482-5.27-7.452.842-12.293 3.535-14.512 5.27h1.518c2.298-1.197 6.589-3.77 14.262-4.431-1.314.226-2.44.519-3.418.846-2.075.693-3.4 1.493-4.586 2.208-.05.03-.405.268-.76.507-.36.24-1.043.87-1.092.9l1.609-.03s.623-.479.725-.54c1.166-.703 2.428-1.465 4.4-2.124 1.476-.493 3.324-.91 5.716-1.125a20.45 20.45 0 00-.645.204c-2.074.693-3.476 1.539-4.585 2.208-.051.031-.392.271-.732.51-.34.24-.81.838-.86.867h1.43c.223-.261.542-.48.644-.54 1.105-.667 2.427-1.465 4.4-2.124a22.376 22.376 0 013.454-.84c-1.945.677-3.282 1.484-4.348 2.127-.051.031-.369.273-.684.513-.313.238-.701.75-.777.864h1.326c.175-.248.515-.479.616-.54 1.105-.666 2.428-1.465 4.4-2.124C37.412 33.616 40.36 33 44.634 33h4.936l1.068-3h-27.45C14.434 30 5.993 34.211 3 37h1.378z" fill="#0B79BF"/><path d="M16.218 25.323h-2.27l-.55 2.673H12.19L13.419 22h1.205l-.473 2.324h2.27L16.899 22h1.206l-1.226 5.996H15.67l.549-2.673zM18.178 27.996L19.403 22h4.353l-.205 1h-3.143l-.28 1.373h3.039l-.204 1h-3.04l-.368 1.623h3.416l-.209 1h-4.584zM28.422 27.996h-1.125l-1.585-4.02-.825 4.02h-1.125L24.987 22h1.129l1.59 4.017.82-4.017h1.122l-1.226 5.996zM29.686 27.996L30.915 22h1.205l-1.225 5.996h-1.21zM32.102 27.996L33.327 22h4.353l-.204 1h-3.144l-.28 1.373h3.04l-.205 1h-3.04l-.367 1.623h3.415l-.208 1h-4.585zM38.887 27.996h-1.21L38.908 22h2.607c.448 0 .797.062 1.045.157.25.092.453.264.605.514.154.25.232.554.232.91 0 .509-.15.929-.449 1.26-.299.33-.751.534-1.357.613.155.141.3.328.436.559.27.468.57 1.129.901 1.983H41.63c-.104-.337-.308-.864-.613-1.58-.165-.385-.341-.645-.528-.778-.115-.08-.315-.119-.6-.119h-.493l-.509 2.477zm.693-3.374h.64c.65 0 1.079-.04 1.29-.119.214-.079.38-.203.5-.371a.9.9 0 00.18-.53.54.54 0 00-.26-.49c-.106-.066-.337-.112-.692-.112h-1.33l-.328 1.622zM43.662 27.996L44.887 22h4.353l-.204 1h-3.144l-.28 1.373h3.04l-.205 1h-3.04l-.367 1.623h3.415l-.208 1h-4.585zM10.664 26h1.217a2.967 2.967 0 01-1.069 1.466c-.475.353-1.032.53-1.67.53-.718 0-1.28-.22-1.686-.66-.403-.442-.604-1.08-.604-1.919 0-.68.135-1.302.404-1.865.273-.565.649-.998 1.13-1.297.48-.3 1.003-.449 1.57-.449.634 0 1.148.174 1.54.522.393.346.6 1.071.67 1.67h-1.158c-.118-.645-.352-1.131-1.077-1.131-.334 0-.646.103-.937.31-.288.207-.52.53-.693.971-.173.438-.26.876-.26 1.314 0 .479.112.849.336 1.11.227.261.509.392.845.392.545 0 1.272-.428 1.442-.964z" fill="#08090D"/></svg>