<svg width="56" height="56" xmlns="http://www.w3.org/2000/svg"><path fill="#E11A2B" d="M0 0h56v56H0z"/><path d="M30.929 32.518c.381-.34.729-.564 1.093-.709.362-.143.76-.213 1.285-.22.585 0 1.186.17 1.693.478.589.36 1.026.893 1.261 1.543l.085.236h1.103l-.168-.475a4.027 4.027 0 00-1.763-2.157 4.518 4.518 0 00-2.265-.618c-1.178 0-2.263.435-3.055 1.225-.792.79-1.229 1.872-1.229 3.046 0 1.081.404 2.141 1.109 2.908.803.873 1.925 1.335 3.245 1.335.883 0 1.721-.254 2.424-.733a4.037 4.037 0 001.519-1.968l.107-.323h-1.112l-.016.086c-.168.486-.534.963-1.006 1.309a3.38 3.38 0 01-1.986.635c-.433 0-.853-.078-1.247-.233a3.189 3.189 0 01-1.042-.669 3.1 3.1 0 01-.718-1.057 3.413 3.413 0 01-.25-1.304c0-.448.089-.907.26-1.326.166-.412.4-.762.673-1.009zM16.992 31.672a2.741 2.741 0 00-1.009-.636c-.745-.271-1.767-.294-2.614.061a3.055 3.055 0 00-1.395 1.158 2.168 2.168 0 00-.269-.39 2.763 2.763 0 00-1.07-.775 3.619 3.619 0 00-1.39-.261c-.32 0-.808.05-1.323.284a2.962 2.962 0 00-.896.63v-.914H6v8.17h1v-4.448c0-.466.077-.845.182-1.179a2.3 2.3 0 01.478-.852A1.77 1.77 0 018.341 32c.294-.13.605-.195.894-.179.4.013.752.087 1.044.218.284.129.522.315.706.55.173.23.278.432.35.674.09.296.131.659.131 1.142L11.463 39h1.026V34.63c0-.508.016-.913.096-1.24.07-.287.196-.535.422-.826.19-.247.456-.439.791-.57a2.742 2.742 0 011.818-.03c.248.089.46.225.635.405.22.22.387.511.498.868.118.38.251.849.251 1.393V39h1V34.63a5.7 5.7 0 00-.28-1.719c-.16-.509-.406-.926-.728-1.24zM49.494 34.741c-.449-.338-.992-.484-1.521-.627l-.059-.015c-.549-.153-.873-.295-1.086-.475-.215-.184-.319-.427-.337-.786a1.219 1.219 0 01.069-.47c.053-.145.133-.274.238-.384.117-.123.265-.22.438-.288.18-.07.38-.106.602-.106.181-.007.366.023.534.084.155.056.29.138.398.244.103.102.185.229.242.377.06.156.092.336.095.534v.575h1.025l.001-.587c-.011-.647-.237-1.2-.652-1.6-.412-.397-.982-.611-1.652-.62-.613 0-1.182.191-1.604.54-.496.41-.758 1.005-.758 1.727.024.694.253 1.19.722 1.56.418.332.995.516 1.56.678.59.13.98.303 1.225.547.226.225.337.53.348.956l.001.05c0 .201-.035.392-.105.567-.068.174-.17.33-.299.464a1.397 1.397 0 01-.478.318 1.645 1.645 0 01-.612.113c-.473 0-.874-.146-1.159-.422-.283-.275-.437-.666-.446-1.13v-.48l-1.007.006-.025.58c0 .303.054.595.161.869.108.273.267.522.473.74.245.26.557.472.902.615.342.14.723.215 1.101.215.356 0 .7-.067 1.021-.202.321-.135.604-.33.841-.58a2.386 2.386 0 00.656-1.803c-.042-.8-.321-1.384-.853-1.784zM27 30.722V32c-.22-.248-.549-.48-.835-.671a4.384 4.384 0 00-2.45-.733c-1.625 0-2.628.74-3.184 1.36a4.378 4.378 0 00-1.098 2.897c0 1.063.4 2.12 1.097 2.896.556.62 1.56 1.36 3.185 1.36.843 0 1.603-.2 2.258-.595.36-.217.75-.692 1.027-1.014V39h1v-8.278h-1zm-.067 4.676a2.915 2.915 0 01-.157.586 3.193 3.193 0 01-1.16 1.56 3.2 3.2 0 01-1.858.572c-1.002 0-1.85-.35-2.451-1.013-.533-.587-.843-1.408-.85-2.25 0-.904.331-1.732.931-2.333.6-.6 1.426-.93 2.327-.93.671 0 1.31.188 1.85.543.536.353.942.854 1.177 1.452.075.176.133.365.171.562.04.198.06.409.06.634.007.203-.006.41-.04.617zM27.395 8l-2.206 6.753h-7.184l5.82 4.197-2.205 6.755 5.766-4.18 5.8 4.2-2.216-6.786 5.794-4.186h-7.161L27.395 8zM41.091 37.292l-2.602-6.57h-1.113l.209.598c.023.06.764 1.922 1.5 3.768l1.416 3.556-1.479 3.355h1.142l4.623-10.672.212-.606h-1.147l-2.76 6.571z" fill="#fff"/></svg>