<svg width="56" height="56" xmlns="http://www.w3.org/2000/svg"><path fill="#B00B1C" d="M0 0h56v56H0z"/><path d="M11 37.134V41c6.072-3.492 17.593-8.714 35-10.165V30c-12.795.714-24.88 3.145-35 7.134z" fill="#FFD401"/><path d="M11 42.413V45c8.665-6.377 21.355-10.765 35-12.215V32c-13.483 1.21-25.334 4.823-35 10.413z" fill="#fff"/><path d="M29.915 20.982c-.374 0-.8.023-.915 0V17s.802-.013 1.1-.013c1.426 0 2.055.6 2.055 1.908 0 1.817-1.38 2.075-2.24 2.087zm2.59 3.458c0 1.786-1.001 2.515-2.51 2.515H29V22h.86c1.903 0 2.645.802 2.645 2.44zm-.604-3.187c1.356-.378 2.497-1.342 2.497-2.804 0-1.403-.917-2.346-2.796-2.346-.897 0-2.023.09-2.836.09-.798 0-1.647-.008-2.62-.059l-.062-.008v.651l.057.005c.815.06.875.217.875 1.526v7.74c0 .692-.091 1.03-.728 1.08l-.188.015v.641a49.746 49.746 0 012.26-.066c.5 0 .882.028 1.51.053 3.754.165 4.975-1.956 4.975-3.661 0-2.038-1.505-2.55-2.942-2.84l-.002-.017zM20.163 26.21c-.744.46-1.611.654-2.591.654-2.65 0-3.966-2.03-3.966-5.248 0-2.835 1.262-4.708 3.679-4.708.824 0 1.49.29 1.93.704.073.265.17 1.647.17 1.647l.676.002v-.05c.006-.599.174-1.99.3-2.69l.006-.055-.05-.003c-.949-.25-1.916-.463-3.204-.463-2.915 0-5.89 1.754-5.89 5.815 0 4.259 2.613 6.106 5.763 6.106.863 0 2.008-.13 2.933-.635l.015-.006.448-.847-.182-.245-.037.023zM44.53 26.21c-.743.46-1.608.654-2.592.654-2.647 0-3.963-2.03-3.963-5.248 0-2.835 1.262-4.708 3.678-4.708.825 0 1.49.29 1.93.704.071.265.17 1.647.17 1.647l.678.002-.004-.05c.008-.599.174-1.99.301-2.69l.007-.055-.05-.003c-.95-.25-1.918-.463-3.206-.463-2.913 0-5.887 1.754-5.887 5.815 0 4.259 2.612 6.106 5.764 6.106.86 0 2.008-.13 2.933-.635l.013-.006.448-.847-.181-.245-.04.023zM23.212 16.194c-.682 0-1.448-.009-2.099-.063l-.052-.005v.646l.046.002c.852.053.963.192.963 1.659v7.35c0 1.122-.055 1.295-.922 1.35l-.047.005v.646l.052-.006a23.754 23.754 0 012.028-.067c.667 0 1.163.016 1.87.073l.052.006v-.646l-.044-.005c-.866-.055-1.059-.234-1.059-1.357v-7.35c0-1.49.15-1.605 1.008-1.658l.044-.002v-.646L25 16.13c-.703.054-1.119.063-1.788.063z" fill="#FFD401"/></svg>