<svg width="56" height="56" xmlns="http://www.w3.org/2000/svg"><path fill="#D9232E" d="M0 0h56v56H0z"/><path d="M12.585 25.744l.878-.162-.732-.15.39-.438-.683.161.122-.635-.463.3-.22-.819-.195.935-.56-.416.182.566-.536-.092.463.461-.768.15.78.162-.317.334.488-.034-.22.623.537-.52.159.831.17-.83.415.415-.049-.52.598.197-.44-.52zm-.305-.22c0 .197-.159.346-.366.346s-.366-.15-.366-.346c0-.196.159-.346.366-.346s.366.15.366.346zM8.244 25.501l-.714 2.892-.764-2.892H4.833L4 31h1.814l.268-3L7 31h1l.928-3 .258 3H11l-.853-5.499H8.244z" fill="#fff"/><path d="M12.723 28.427V27H11v4h1.714v-1.354c.229.885.936 1.354 1.873 1.354.296 0 .592-.083.86-.177l.077-1.573c-.201.156-.392.292-.66.292-.277 0-.507-.24-.507-.552 0-.344.22-.573.536-.573.248 0 .449.156.63.312v-1.531a3.192 3.192 0 00-1.07-.198c-.85 0-1.52.594-1.73 1.427zM50.163 27l-.792 2-.235-2H45.667l-.03.58h-.048c-.176-.405-.499-.58-.958-.58-.87 0-1.515.746-1.76 1.578-.088-.988-.86-1.578-1.906-1.578-.782 0-1.524.393-1.964 1.037L39.138 27h-.587l.186-1.124h-1.76L36.783 27h-1.988l-.094.57h-.039a1.045 1.045 0 00-.968-.57c-.85 0-1.475.757-1.74 1.567L32.18 27c-.587-.01-.92.154-1.3.653h-.04l.118-.653H28.62l.186-1h-1.76l-.16 1h-.464l-.167 1.308c-.176-.385-.548-.603-1.037-.718l-.4-.104c-.137-.03-.362-.062-.332-.27.029-.218.283-.29.44-.29.4 0 .732.176 1.016.405l.703-1.383a2.587 2.587 0 00-1.544-.478c-1.104 0-2.316.717-2.512 2.006-.127.852.41 1.3 1.114 1.434l.362.073c.166.031.4.063.372.302-.04.239-.342.322-.518.322-.43 0-.792-.218-1.085-.5 0 0-.04-.04-.098-.103-.03-1.3-1.007-2.004-2.17-2.004-.772 0-1.456.32-1.847.902V27c-.587-.01-.91.112-1.212.611h-.04v-.61h-1.7v4h1.74v-1.55c0-.478.234-.759.684-.759.088 0 .156.021.225.042-.01.104-.02.208-.02.322 0 1.268 1.056 1.944 2.18 1.944.518 0 1.026-.146 1.417-.437.528.301 1.232.437 1.867.437 1.104 0 2.307-.593 2.502-1.882.03-.208.03-.384 0-.54l.303-.02L26.285 31h1.76l.351-2.443.587.042L28.63 31h1.74l.214-1.518c.069-.478.342-.759.792-.759.205 0 .323.084.47.187-.01.042-.02.084-.02.125-.137.925.244 1.965 1.221 1.965.49 0 .812-.219 1.183-.582h.04l-.128.582h1.71l.352-2.433h.37L36.225 31h1.76l.343-2.433h.39a2.634 2.634 0 00-.128.5c-.195 1.32.743 1.933 1.877 1.933.82 0 1.857-.427 2.219-1.341h-1.701c-.059.177-.215.312-.4.312-.362 0-.362-.343-.314-.655h2.483c0 .831.42 1.61 1.27 1.61.411 0 .91-.217 1.144-.633h.05l-.089.384c-.107.478-.528 1.136-.997 1.136-.43 0-.9-.166-1.192-.468l-.577 1.289.166.062a3.75 3.75 0 001.496.302c1.642 0 2.475-.778 2.785-2.383l.508-3.388.958 3.232-1.275 2.539h1.838L52 27h-1.837zm-29.527 2.565c-.274 0-.49-.218-.49-.52 0-.311.196-.56.49-.56.293 0 .488.249.488.56 0 .302-.215.52-.488.52zm13.85-.582c-.04.291-.226.572-.548.572-.313 0-.41-.26-.372-.561.04-.281.255-.52.528-.52.274 0 .43.208.391.51zm6.743-.457v.02h-.87v-.03c.04-.281.196-.468.401-.51.03-.01.059-.01.088-.01a.36.36 0 01.284.135.46.46 0 01.097.395zm4.203.416c-.039.29-.225.53-.518.53-.303 0-.46-.229-.41-.54.048-.302.273-.552.557-.552.293.01.41.281.371.562z" fill="#fff"/></svg>