<svg xmlns="http://www.w3.org/2000/svg" width="56" height="56" viewBox="0 0 56 56"><path fill="#830AD1" d="M0 0h56v56H0z"/><path d="M20.76 18c-1.74 0-3.23.72-4.35 1.95h-.24a6.17 6.17 0 0 0-5.47 3.52 6.8 6.8 0 0 0-.7 2.96V38h5V24.71c.08-2.17.35-3.59 1.4-4.75 3.5 0 5.47 2.51 5.6 6.5V38h5v-7.74-.65c0-2.06 0-3.85-.14-5.11-.43-3.9-2.69-6.5-6.1-6.5zm14.48 20c1.74 0 3.23-.72 4.35-1.95h.24a6.17 6.17 0 0 0 5.47-3.52c.46-.93.7-1.95.7-2.96V18h-5v13.29c-.08 2.17-.35 3.59-1.4 4.75-3.5 0-5.47-2.51-5.6-6.5V18h-5v8.39c0 2.06 0 3.85.14 5.11.43 3.9 2.69 6.5 6.1 6.5z" fill="#fff"/></svg>