<svg width="56" height="56" xmlns="http://www.w3.org/2000/svg"><path fill="#083970" d="M0 0h56v56H0z"/><path fill="#fff" d="M12 29h32v10H12zM26 15.721h4V29h-4zM27 13h2v1.98h-2z"/><path fill="#fff" d="M27.5 12.276h1.001v1.98H27.5z"/><path fill="#fff" d="M26.393 14h3.214v1h-3.214z"/><rect x="21" y="11" width="14" height="1" rx=".5" fill="#fff"/><path fill="#fff" d="M24 23h8v2h-8zM24 25.463h8v2h-8zM19.5 27.014H21V29h-1.5zM21.5 27.014H23V29h-1.5z"/><path fill="#fff" d="M19 27.463h4.5v1.111H19zM33 27.014h1.5V29H33zM35 27.014h1.5V29H35z"/><path fill="#fff" d="M32.5 27.463H37v1.111h-4.5zM19.5 39H21v2h-1.5zM21.5 39H23v2h-1.5z"/><path fill="#fff" d="M19 39.403h4.5v.997H19zM33 39h1.5v2.003H33zM35 39h1.5v2.003H35z"/><path fill="#fff" d="M32.5 39.403H37v.997h-4.5zM25 22h6v1.054h-6zM24 38.51c0-.27.22-.49.49-.49h7.02a.49.49 0 010 .98h-.01a.5.5 0 00-.5.5V42a1 1 0 01-1 1h-4a1 1 0 01-1-1v-2.5a.5.5 0 00-.5-.5h-.01a.49.49 0 01-.49-.49zM29 13.99l4.233-2.908.566.824-4.233 2.908zM27 13.99l-4.233-2.908-.566.824 4.233 2.908zM25.999 8.5A.5.5 0 0127 8.5V11h-1.001V8.5zM27.5 15h1v1h-1v-1z"/></svg>