<svg width="56" height="56" xmlns="http://www.w3.org/2000/svg"><path fill="#F0F3FA" d="M0 0h56v56H0z"/><path d="M4 36h8.82v2H4v-2z" fill="#D31145"/><path d="M4 28h9v1H4v-1z" fill="#A1A3A6"/><path d="M4 30h9v1H4v-1z" fill="#D31145"/><path d="M4 32h9v1H4v-1z" fill="#002A5C"/><path d="M4 34h9v1H4v-1z" fill="#A1A3A6"/><path d="M52 36h-8.82v2H52v-2z" fill="#D31145"/><path d="M52 28h-9v1h9v-1z" fill="#A1A3A6"/><path d="M52 30h-9v1h9v-1z" fill="#D31145"/><path d="M52 32h-9v1h9v-1z" fill="#002A5C"/><path d="M52 34h-9v1h9v-1z" fill="#A1A3A6"/><path d="M12 28h32v10H12V28zM26 15h4v13h-4V15zM27.046 12.741h1.897v1.878h-1.897V12.74z" fill="#003263"/><path d="M27.5 12.122h.95V14h-.95v-1.878z" fill="#003263"/><path d="M26.5 13.689h3.047v.948H26.5v-.948zM21.392 11.474c0-.262.212-.474.474-.474h12.327a.474.474 0 010 .948H21.866a.474.474 0 01-.474-.474zM24 22h8v2h-8v-2zM24 25h8v1h-8v-1zM19 26h1.517v2.144H19zM21.023 26h1.517v2.144h-1.517z" fill="#003263"/><path d="M18.448 26.484H23v1.2h-4.552v-1.2zM33.505 26h1.517v2.144h-1.517zM35.529 26h1.517v2.144h-1.517z" fill="#003263"/><path fill="#003263" d="M33 26.484h4.551v1.199H33zM19 38h1.517v2H19v-2zM21.023 38h1.518v2h-1.518v-2z"/><path d="M18.5 38.435h4.484v1.077H18.5v-1.077zM33.395 38h1.518v2h-1.517v-2zM35.42 38h1.517v2H35.42v-2z" fill="#003263"/><path d="M33 38.435h4.379v1.077H33v-1.077zM25 21h6v1h-6v-1zM24.052 36.742c0-.256.208-.464.464-.464h7.02a.465.465 0 010 .929H31.5a.5.5 0 00-.5.5V40a1 1 0 01-1 1h-4a1 1 0 01-1-1v-2.32a.474.474 0 00-.474-.473h-.01a.464.464 0 01-.464-.465zM28.7 13.817l4.014-2.758.537.782-4.014 2.758-.537-.782zM27.12 13.694L23.3 11.07l-.536.782 3.82 2.624.536-.782zM26 8.655a.5.5 0 111 0V11h-1V8.655zM27.531 14.637h.95v.948h-.95v-.948z" fill="#003263"/></svg>