<svg width="56" height="56" xmlns="http://www.w3.org/2000/svg"><path fill="#B5121B" d="M0 0h56v56H0z"/><path d="M24 21H4.7l10.615 1.28L18.868 24H24v-3zM24 25H7.156l8.334.979L19.2 28h4.8v-3zM24 29H10.928l5.834.903L19.804 32H24v-3zM24 33h-9.65l3.158.527L20.532 36H24v-3zM37.133 25.77c0 1.677-.507 2.973-1.521 3.89-1.007.91-2.442 1.34-4.302 1.34H30v5h-4V21h5.31c1.937 0 3.393.414 4.365 1.241.972.828 1.459 2.005 1.459 3.53zM30 28h.9c.623 0 1.116-.171 1.48-.513.37-.342.556-1.094.556-1.696 0-1.012-.574-1.791-1.72-1.791H30v4zM42 36h-4V21h9v3h-5v3h5v3h-5v6z" fill="#fff"/></svg>