<svg xmlns="http://www.w3.org/2000/svg" width="56" height="56" viewBox="0 0 56 56"><path fill="#F0F3FA" d="M0 0h56v56H0z"/><path fill-rule="evenodd" d="M28 44a16 16 0 1 0 0-32 16 16 0 0 0 0 32Zm-.17-6.33a10 10 0 1 0 0-20 10 10 0 0 0 0 20Z" fill="#9CC8A8"/><path fill-rule="evenodd" d="M28 44a16 16 0 1 0 0-32 16 16 0 0 0 0 32Zm-.17-5.5a10.8 10.8 0 0 0 10.84-10.75A10.8 10.8 0 0 0 27.83 17 10.8 10.8 0 0 0 17 27.75 10.8 10.8 0 0 0 27.83 38.5Z" fill="#338BAD"/><path fill-rule="evenodd" d="M28 44a16 16 0 1 0 0-32 16 16 0 0 0 0 32Zm-1-5.5a12 12 0 1 0 0-24 12 12 0 0 0 0 24Z" fill="#F28128"/><path fill-rule="evenodd" d="M28 44a16 16 0 1 0 0-32 16 16 0 0 0 0 32Zm.54-5c6.65 0 11.96-5.72 11.96-11.93S35.2 16.5 28.54 16.5c-6.65 0-12.04 5.04-12.04 11.25S21.9 39 28.54 39Z" fill="#9FC89B"/><path fill-rule="evenodd" d="M28 44a16 16 0 1 0 0-32 16 16 0 0 0 0 32Zm.5-3.67c6.63 0 12-5.33 12-11.91s-5.37-11.92-12-11.92-12 5.34-12 11.92 5.37 11.91 12 11.91Z" fill="#F4D20D"/><path fill-rule="evenodd" d="M28 44a16 16 0 1 0 0-32 16 16 0 0 0 0 32Zm.5-2.17a13.3 13.3 0 0 0 13.33-13.25A13.3 13.3 0 0 0 28.5 15.33a13.3 13.3 0 0 0-13.33 13.25A13.3 13.3 0 0 0 28.5 41.83Z" fill="#2F90BF"/><path fill-rule="evenodd" d="M28 44a16 16 0 1 0 0-32 16 16 0 0 0 0 32Zm.58-1.33c7.87 0 14.25-6.3 14.25-14.09 0-7.77-6.38-14.08-14.25-14.08s-14.25 6.3-14.25 14.08 6.38 14.09 14.25 14.09Z" fill="#A0C899"/><path d="M15.42 18.67a16.35 16.35 0 0 1 4-3.84 13.5 13.5 0 0 1 9.26-1.82l-.6-.01c-8.14 0-14.77 6.91-15.07 15.56a15.44 15.44 0 0 1 .41-4.12c.25-2.1.87-4.1 2-5.77Z" fill="#F48325"/><path fill-rule="evenodd" d="M28 44a16 16 0 1 0 0-32 16 16 0 0 0 0 32Zm0-1a15 15 0 0 0 .7-29.98 13.17 13.17 0 0 0-15.27 11.43A15 15 0 0 0 28 43Z" fill="#312345"/></svg>