<svg width="56" height="56" viewBox="0 0 56 56" xmlns="http://www.w3.org/2000/svg"><path fill="#F0F3FA" d="M0 0h56v56H0z"/><path d="M7.11 33c-1.28 0-2.14-.2-2.76-.53L4 30.19h.27l.27.57c.67 1.3 1.44 1.87 2.73 1.87 1.44 0 2.3-.77 2.3-2 0-1.1-.6-1.66-2.34-2.27-1.99-.7-2.96-1.51-2.96-3.26 0-1.76 1.56-3.1 3.46-3.1a6 6 0 0 1 2.57.45l.35 2.4h-.27l-.27-.57c-.59-1.3-1.33-1.87-2.5-1.87-1.2 0-1.9.77-1.9 1.83s.58 1.63 2.22 2.2c2.18.77 3.07 1.63 3.07 3.38C10.96 31.7 9.21 33 7.11 33ZM16.9 32.1c-.6.57-1.3.9-2.1.9-1.2 0-1.8-.57-1.8-1.84V26h-1.1v-.18l1.17-.45L14.24 23H15v2.4h1.74v.6H15v5.08c0 .74.08 1.1.69 1.1.4 0 .68-.12 1.05-.36l.16.28ZM20.98 33C18.67 33 17 31.6 17 28.94A3.86 3.86 0 0 1 21.02 25c2.35 0 3.98 1.4 3.98 4.06A3.86 3.86 0 0 1 20.98 33Zm-.22-7.59c-1.1 0-1.76.83-1.76 3.11 0 2.49.82 4.1 2.2 4.1 1.15 0 1.8-.82 1.8-3.1.04-2.49-.82-4.1-2.24-4.1Z" fill="#040C17"/><path d="M34 33h-4.05v-.26l.26-.04c.73-.13.79-.34.79-1.79v-3.1c0-1.2-.45-1.79-1.4-1.79-.64 0-1.13.26-1.6.6v4.3c0 1.44.06 1.65.79 1.78l.26.04V33H25v-.26l.3-.04c.65-.08.7-.34.7-1.91v-3.45c0-.85-.01-1.06-.61-1.36l-.39-.21v-.17l2.75-.6.25.13v1.1c.86-.72 1.65-1.23 2.68-1.23 1.47 0 2.32.8 2.32 2.43v3.31c0 1.62.1 1.8.78 1.92l.3.04-.08.3ZM35.95 28.32v.12c.04 2.2 1.03 3.52 2.62 3.52.88 0 1.5-.33 2.18-1l.2.17C40.13 32.3 39.04 33 37.6 33c-2.05 0-3.6-1.4-3.6-3.77 0-2.57 1.97-4.23 3.86-4.23 2.1 0 3.1 1.16 3.14 3.27l-5.05.05Zm3.02-.46c-.04-1.62-.48-2.45-1.4-2.45-1.05 0-1.5.92-1.62 2.45h3.02ZM52 33h-4.9v-.2l.5-.09c.48-.08.7-.2.7-.5 0-.24-.18-.53-.52-1.06l-1.75-2.64-1.75 2.35c-.42.54-.6.99-.6 1.28 0 .28.18.49.69.57l.51.08V33H41v-.2l.26-.05c.72-.12 1.36-.7 1.91-1.35l2.56-3.26-2.56-3.58c-.6-.82-1.02-1.23-1.62-1.31l-.34-.04V23h4.91v.2l-.52.09c-.42.04-.68.2-.68.5 0 .24.17.53.51 1.06l1.54 2.27 1.5-2.02c.38-.54.59-.99.59-1.24 0-.28-.22-.49-.68-.57l-.52-.08V23h3.88v.2l-.25.05c-.73.12-1.37.66-1.92 1.35l-2.3 2.93 2.77 3.95c.6.82 1.02 1.23 1.62 1.31l.34.05V33Z" fill="#040C17"/></svg>