<svg xmlns="http://www.w3.org/2000/svg" width="56" height="56" viewBox="0 0 56 56"><path fill="#F0F3FA" d="M0 0h56v56H0z"/><path d="M18.82 27H9l7.04-12h9.85l2.14 4 2.72-4h9.68L47 27h-9.8l-2-3.17L33.5 27H23.06l-2.07-3.29L18.82 27z" fill="#999"/><path d="M14.35 38l1.69 3h9.85l1.54-3H14.35zm14.43 0l1.97 3h9.67l1.59-3H28.78z" fill="#0C4FA8"/><path d="M13.66 37l-1.88-3H44.4l-1.76 3H13.66z" fill="#009890"/><path d="M18.82 29H9l2.1 4h33.94L47 29h-9.8l-2 3.53L33.5 29H23.06l-2.07 3.67L18.82 29z" fill="#FD1B29"/></svg>