<svg xmlns="http://www.w3.org/2000/svg" width="56" height="56" viewBox="0 0 56 56"><path fill="url(#akazywjpm)" d="M0 0h56v56H0z"/><path d="M28.08 12L42 20.08c-11.84-5.21-19.96-2.84-20.07-2.87A22.85 22.85 0 0 1 28.08 12z" fill="url(#bkazywjpm)"/><path d="M32.54 14.57L42 20.08c-11.84-5.21-19.96-2.84-20.07-2.87 2.06-2.6 8.6-3.12 10.61-2.64z" fill="url(#ckazywjpm)"/><path d="M28.08 12L42 20.08c-11.84-5.21-19.96-2.84-20.07-2.87A22.85 22.85 0 0 1 28.08 12z" fill="url(#dkazywjpm)"/><path d="M27.99 28L14 20.01v16.02l13.99 7.9V28z" fill="url(#ekazywjpm)"/><path d="M27.97 28.61L14 21.71v13.83l13.97 6.83V28.6z" fill="url(#fkazywjpm)"/><path d="M27.99 28.07L14 20.08V36.1L27.99 44V28.07z" fill="url(#gkazywjpm)"/><path d="M41.98 20.04c-10.13-3.97-17.36-3.18-24.6 1.95L42 36l-.02-15.96z" fill="url(#hkazywjpm)"/><path d="M41.98 28.33a14.13 14.13 0 0 1-13.7-10.7c4.06-.41 8.5.37 13.7 2.4v8.3z" fill="url(#ikazywjpm)" fill-opacity=".7"/><path d="M41.98 28.33a14.13 14.13 0 0 1-13.7-10.7c4.06-.41 8.5.37 13.7 2.4v8.3z" fill="url(#jkazywjpm)" fill-opacity=".8"/><path d="M41.98 28.33a14.13 14.13 0 0 1-13.7-10.7c4.06-.41 8.5.37 13.7 2.4v8.3z" fill="url(#kkazywjpm)"/><path d="M41.98 28.33a14.13 14.13 0 0 1-13.7-10.7c4.06-.41 8.5.37 13.7 2.4v8.3z" fill="url(#lkazywjpm)"/><path d="M14 20.02c8.23-5.13 20.14-4 27.96.03-9.25-3.42-14.38-3.34-24.61 1.94L14 20.02z" fill="url(#mkazywjpm)"/><path d="M14 20.02c8.23-5.13 20.14-4 27.96.03-9.25-3.42-14.38-3.34-24.61 1.94L14 20.02z" fill="url(#nkazywjpm)" fill-opacity=".8"/><path d="M14 20.02c8.23-5.13 20.14-4 27.96.03-9.25-3.42-14.38-3.34-24.61 1.94L14 20.02z" fill="url(#okazywjpm)"/><path d="M27.99 28v15.93c.76-3.78 4.8-10.48 14.01-7.93a77.4 77.4 0 0 0-14.01-8z" fill="url(#pkazywjpm)"/><path opacity=".5" d="M14 30.4c.04-2.97 3.5-5.92 4.9-7.15-.27-.42-1.03-1.26-1.92-1.26-1.12 0-2.98 2.32-2.98 8.42z" fill="url(#qkazywjpm)"/><path d="M31.48 33.5c-.06-.69-1.22-2.44-1.8-3.22.34.14 1.66.95 4.18 2.99-.57-.34-1.55.63-1.98 1.15-.1-.02-.33-.24-.4-.93z" fill="url(#rkazywjpm)"/><path d="M17.43 35.3c-.2-1.85.6-9.22 1.03-12.67.26.38.88 2.52 1.3 8.1.41 5.6 2.76 9.52 3.88 10.78l-5.18-2.93a6.98 6.98 0 0 1-1.03-3.27z" fill="url(#skazywjpm)"/><path d="M16.5 35.15c.06 1.03 1.35 2.7 1.98 3.4l-2.19-1.2c-.2-.63.13-3.49.2-2.2z" fill="url(#tkazywjpm)"/><path d="M32.95 17.33c2.34.46 6.94 1.89 9.04 2.73l-3.03-1.76c-.64-.39-2.7-1.57-3.42-1.98.24.23 2.06 1.22 2.78 1.78-3.04-1.19-10.97-2.28-16.33-.97 2.17-.4 7.26-.53 10.96.2z" fill="url(#ukazywjpm)"/><path d="M32.58 24.8c-3.44-2.04-9.81-3.5-12.57-3.96 0-.38 4.96-2.41 8.36-2.9.5 1.72 1.4 3.44 4.2 6.86z" fill="url(#vkazywjpm)"/><path d="M22.23 19.72l10.35 5.01c1.66.72 5.03 2.33 5.22 3.01.22.85-1.65.4-2.22.4-.56 0-3-1.02-7.31-2.9-3.45-1.5-8.78-2.8-10.96-3.24a40.33 40.33 0 0 1 4.92-2.28z" fill="url(#wkazywjpm)"/><path d="M36.72 27.3c1.43-.04-2.02-1.65-3.93-2.46a2.4 2.4 0 0 0-1.85 0c-.85.43 3.98 2.51 5.78 2.46z" fill="url(#xkazywjpm)"/><path d="M37.67 28.2c1.72-.58-3.4-2.6-6.19-3.54-.48-.17-1.6-.27-2.23.65-.78 1.15 6.27 3.62 8.42 2.9z" fill="url(#ykazywjpm)"/><path opacity=".8" d="M28 42.03V29.48c1.78 1.28 4.99 4.05 3.65 4.88-.86.53-2.19 3-1.5 3.54-.43.75-1.91 3.62-2.15 4.13z" fill="url(#zkazywjpm)"/><path d="M29 39.68c2.49-4.98 8.51-5.4 11.2-4.97l.6.42c-3.07.13-6.98-.98-11.8 4.55z" fill="url(#aakazywjpm)"/><path d="M37.5 27.23l4.46-1.58L42 36l-4.5-8.78z" fill="url(#abkazywjpm)"/><path d="M17.4 22c2.18.8 17.98 5.31 20.56 6.07L42 36a48.92 48.92 0 0 0-4.73-3.13c-.25-.13-1.87-1.25-4.07-2.28-1.88-1.04-3.96-2.18-5.22-2.52-3.2-1.99-8.9-5.17-10.59-6.08z" fill="url(#ackazywjpm)"/><path d="M30.04 26c-1.97-1.87-8.98-3.26-12.7-4l10.69 6.06 5.22 2.58c-1.12-1.24-1.23-2.76-3.2-4.64z" fill="url(#adkazywjpm)" fill-opacity=".8"/><path d="M14 20.07v.23l13.65 7.68c.4.22.3.84.35 1.08.02-.22.03-.6.15-.77.15-.2 3.8 1.79 6.15 2.84-.94-.56-4.6-2.34-6.3-3.15l-13.76-8.06-.23.15z" fill="url(#aekazywjpm)"/><path d="M36.58 32.43c1.35.88 4.2 2.75 4.83 3.14-.54-.53-3.45-2.32-4.83-3.14z" fill="url(#afkazywjpm)"/><defs><linearGradient id="akazywjpm" x1="10.42" y1="9.71" x2="68.15" y2="76.02" gradientUnits="userSpaceOnUse"><stop stop-color="#1A1E21"/><stop offset="1" stop-color="#06060A"/></linearGradient><linearGradient id="bkazywjpm" x1="27.23" y1="15.16" x2="35.06" y2="16.05" gradientUnits="userSpaceOnUse"><stop offset=".08" stop-color="#ECD7A1"/><stop offset=".68" stop-color="#E0CDA3" stop-opacity=".41"/></linearGradient><linearGradient id="ckazywjpm" x1="26.66" y1="12.54" x2="29.31" y2="21.62" gradientUnits="userSpaceOnUse"><stop offset=".29" stop-color="#C7AD95"/><stop offset=".43" stop-color="#DBD3B5"/><stop offset=".55" stop-color="#D6C7D7"/><stop offset=".68" stop-color="#8CD7D0"/><stop offset=".78" stop-color="#DBD3B5"/><stop offset=".87" stop-color="#C7AD95"/><stop offset="1" stop-color="#D8C6A4" stop-opacity="0"/></linearGradient><linearGradient id="dkazywjpm" x1="21.31" y1="12.42" x2="28.94" y2="16.05" gradientUnits="userSpaceOnUse"><stop offset=".39" stop-color="#EEFEFD"/><stop offset=".72" stop-color="#E0F6E6"/><stop offset="1" stop-color="#D8C6A4" stop-opacity="0"/></linearGradient><linearGradient id="ekazywjpm" x1="28.63" y1="25.27" x2="19.14" y2="42.56" gradientUnits="userSpaceOnUse"><stop offset=".22" stop-color="#F9462D"/><stop offset=".43" stop-color="#C7A387"/><stop offset=".57" stop-color="#4CBAA9"/><stop offset=".72" stop-color="#4CBAA9"/><stop offset=".99" stop-color="#F9462D"/></linearGradient><linearGradient id="fkazywjpm" x1="20.98" y1="37.83" x2="25.22" y2="26.37" gradientUnits="userSpaceOnUse"><stop offset=".14" stop-color="#C7A387" stop-opacity="0"/><stop offset=".55" stop-color="#C4A68B"/><stop offset="1" stop-color="#F9462D" stop-opacity="0"/></linearGradient><linearGradient id="gkazywjpm" x1="14" y1="19.49" x2="31.67" y2="33.42" gradientUnits="userSpaceOnUse"><stop offset=".12" stop-color="#F9462D"/><stop offset=".17" stop-color="#FF9DB0"/><stop offset=".23" stop-color="#FFB2AA"/><stop offset=".29" stop-color="#F9462D" stop-opacity="0"/></linearGradient><linearGradient id="hkazywjpm" x1="40.55" y1="17.53" x2="29.76" y2="36.01" gradientUnits="userSpaceOnUse"><stop stop-color="#FFFDFF"/><stop offset=".27" stop-color="#36D5EC"/><stop offset=".49" stop-color="#D3CCBC"/></linearGradient><linearGradient id="ikazywjpm" x1="26.86" y1="20.27" x2="38.36" y2="17.51" gradientUnits="userSpaceOnUse"><stop offset=".07" stop-color="#fff" stop-opacity="0"/><stop offset=".25" stop-color="#F77572"/><stop offset=".51" stop-color="#D75086"/><stop offset="1" stop-color="#fff" stop-opacity="0"/></linearGradient><linearGradient id="jkazywjpm" x1="40.73" y1="26.24" x2="35.16" y2="19.24" gradientUnits="userSpaceOnUse"><stop offset=".33" stop-color="#28ADBE"/><stop offset="1" stop-color="#fff" stop-opacity="0"/></linearGradient><linearGradient id="kkazywjpm" x1="41.25" y1="22.16" x2="37.51" y2="25.72" gradientUnits="userSpaceOnUse"><stop stop-color="#fff"/><stop offset="1" stop-color="#fff" stop-opacity="0"/></linearGradient><linearGradient id="lkazywjpm" x1="32.45" y1="31.95" x2="38.09" y2="25.14" gradientUnits="userSpaceOnUse"><stop offset=".33" stop-color="#5A6052"/><stop offset="1" stop-opacity="0"/></linearGradient><linearGradient id="mkazywjpm" x1="17.13" y1="19.33" x2="34.44" y2="17.11" gradientUnits="userSpaceOnUse"><stop stop-color="#F7E4C6"/><stop offset="1" stop-color="#FFFEFC"/></linearGradient><linearGradient id="nkazywjpm" x1="14" y1="21.28" x2="24.66" y2="18.75" gradientUnits="userSpaceOnUse"><stop stop-color="#9BC9A2"/><stop offset=".42" stop-color="#FEE2BC"/><stop offset=".72" stop-color="#fff" stop-opacity="0"/></linearGradient><linearGradient id="okazywjpm" x1="28.75" y1="17.66" x2="28.6" y2="19.63" gradientUnits="userSpaceOnUse"><stop stop-color="#fff"/><stop offset="1" stop-color="#fff" stop-opacity="0"/></linearGradient><linearGradient id="pkazywjpm" x1="32.63" y1="37.05" x2="29.31" y2="30.22" gradientUnits="userSpaceOnUse"><stop stop-color="#EB0031"/><stop offset=".23" stop-color="#C24131"/><stop offset=".51" stop-color="#BA5D2F"/><stop offset=".78" stop-color="#BEBBA9"/><stop offset="1" stop-color="#E7A9DD"/></linearGradient><linearGradient id="qkazywjpm" x1="15.72" y1="22.95" x2="20.43" y2="27.56" gradientUnits="userSpaceOnUse"><stop stop-color="#FFA881"/><stop offset=".11" stop-color="#FFBFC2"/><stop offset=".26" stop-color="#FFB99B"/><stop offset=".39" stop-color="#F95D4A"/></linearGradient><linearGradient id="rkazywjpm" x1="31.21" y1="30.85" x2="30.51" y2="31.45" gradientUnits="userSpaceOnUse"><stop stop-color="#BB6539" stop-opacity="0"/><stop offset=".4" stop-color="#BB5B30"/><stop offset=".97" stop-color="#BB5D30" stop-opacity="0"/></linearGradient><linearGradient id="skazywjpm" x1="32.95" y1="31.43" x2="15.1" y2="42.64" gradientUnits="userSpaceOnUse"><stop offset=".34" stop-color="#FA462E"/><stop offset=".57" stop-color="#ABBDA1"/><stop offset=".74" stop-color="#F3AF8C"/></linearGradient><linearGradient id="tkazywjpm" x1="15.8" y1="36.13" x2="18.48" y2="38.55" gradientUnits="userSpaceOnUse"><stop offset=".01" stop-color="#CEC68B" stop-opacity="0"/><stop offset=".41" stop-color="#CBC389"/><stop offset="1" stop-color="#C4C4C4" stop-opacity="0"/></linearGradient><linearGradient id="ukazywjpm" x1="38.12" y1="18.5" x2="20.54" y2="17.45" gradientUnits="userSpaceOnUse"><stop stop-color="#DC5029"/><stop offset=".42" stop-color="#D4A677"/><stop offset="1" stop-color="#C4C4C4" stop-opacity="0"/></linearGradient><linearGradient id="vkazywjpm" x1="29.61" y1="18.09" x2="25.59" y2="22.18" gradientUnits="userSpaceOnUse"><stop offset=".12" stop-color="#CEABB1"/><stop offset=".55" stop-color="#B5C7C7"/><stop offset=".73" stop-color="#BEC4AA"/><stop offset="1" stop-color="#C4C4C4" stop-opacity="0"/></linearGradient><linearGradient id="wkazywjpm" x1="25.08" y1="25.8" x2="27.56" y2="20.34" gradientUnits="userSpaceOnUse"><stop stop-color="#9FD6AE"/><stop offset=".26" stop-color="#C4D3B5"/><stop offset=".43" stop-color="#A3B7C2"/><stop offset=".59" stop-color="#ACCBD1"/><stop offset="1" stop-color="#C4C4C4" stop-opacity="0"/></linearGradient><linearGradient id="xkazywjpm" x1="32.03" y1="24.65" x2="34.21" y2="28.2" gradientUnits="userSpaceOnUse"><stop stop-color="#EDD69B" stop-opacity="0"/><stop offset=".29" stop-color="#EDD69B"/><stop offset=".57" stop-color="#DBCFAC"/><stop offset=".94" stop-color="#B9C4CD"/><stop offset="1" stop-color="#C4C4C4" stop-opacity="0"/></linearGradient><linearGradient id="ykazywjpm" x1="34.71" y1="24.37" x2="33.95" y2="29.21" gradientUnits="userSpaceOnUse"><stop offset=".48" stop-color="#C4C4C4" stop-opacity="0"/><stop offset=".8" stop-color="#02CBDF"/></linearGradient><linearGradient id="zkazywjpm" x1="29.53" y1="29.48" x2="31.37" y2="40.36" gradientUnits="userSpaceOnUse"><stop offset=".05" stop-color="#C4C4C4" stop-opacity="0"/><stop offset=".2" stop-color="#948594"/><stop offset=".43" stop-color="#B2846D"/><stop offset=".63" stop-color="#93C8A9"/><stop offset=".9" stop-color="#C4C4C4" stop-opacity="0"/></linearGradient><linearGradient id="aakazywjpm" x1="32.99" y1="34.14" x2="33.59" y2="37.14" gradientUnits="userSpaceOnUse"><stop offset=".38" stop-color="#AC1F2E"/><stop offset="1" stop-color="#A9132F" stop-opacity="0"/></linearGradient><linearGradient id="abkazywjpm" x1="39.49" y1="26.6" x2="42.39" y2="36.24" gradientUnits="userSpaceOnUse"><stop stop-color="#6ADBFF" stop-opacity="0"/><stop offset=".13" stop-color="#20AAB0"/><stop offset=".29" stop-color="#ADC961"/><stop offset=".48" stop-color="#D12C8F"/><stop offset=".67" stop-color="#9FD154"/><stop offset=".85" stop-color="#D7699F"/><stop offset=".94" stop-color="#BD110C"/></linearGradient><linearGradient id="ackazywjpm" x1="42.28" y1="23.41" x2="41.97" y2="36.31" gradientUnits="userSpaceOnUse"><stop offset=".22" stop-color="#04D9DA"/><stop offset=".37" stop-color="#6FBBC0"/><stop offset=".52" stop-color="#88A05B"/><stop offset=".64" stop-color="#B05E8F"/><stop offset=".74" stop-color="#9BB07F"/><stop offset=".88" stop-color="#AD742E"/><stop offset="1" stop-color="#BB150A" stop-opacity=".12"/></linearGradient><linearGradient id="adkazywjpm" x1="30.38" y1="24.93" x2="27.28" y2="32.81" gradientUnits="userSpaceOnUse"><stop stop-color="#D4D9CF"/><stop offset=".27" stop-color="#D4C0A8"/><stop offset=".51" stop-color="#EB8E6D"/></linearGradient><linearGradient id="aekazywjpm" x1="25.43" y1="25.23" x2="24.15" y2="27.48" gradientUnits="userSpaceOnUse"><stop offset=".41" stop-color="#FBFBFB"/><stop offset="1" stop-color="#FBFBFB" stop-opacity="0"/></linearGradient><linearGradient id="afkazywjpm" x1="38.34" y1="33.6" x2="41.11" y2="35.36" gradientUnits="userSpaceOnUse"><stop stop-color="#A4C85C"/><stop offset="1" stop-color="#A4C85C" stop-opacity="0"/></linearGradient></defs></svg>