<svg width="56" height="56" xmlns="http://www.w3.org/2000/svg"><path fill="#333F71" d="M0 0h56v56H0z"/><path d="M8.979 27.5l.198-1.5h1.482l.34-1.996L13 23l-.497 3h2.409l-.171 1.5h-2.41L12 30.14c-.122.757.194 1.23 1.11 1.23.362 0 .597-.196.89-.37l-.19 1.592c-.466.189-.995.385-1.478.385-2.195 0-2.575-.898-2.298-2.679l.444-2.798H8.979zM22.996 33H25l.654-4.381c.154-1.008.783-2.082 2.502-2.119 1.452 0 1.469 1.671 1.33 2.507L29 33h2l.56-4.986c.225-1.544-.345-2.977-2.575-2.977-1.382 0-2.747.661-3.23 1.418L26 25h-2l-1.004 8zm17.496-3.5l.068-.351c.415-2.631-.933-4.112-3.248-4.112-2.506 0-4.752 1.591-5.115 3.97-.363 2.379 1.382 3.97 3.888 3.97 1.313 0 2.653-.465 3.793-1.552l-1.457-.918c-.605.583-1.265.957-2.301.957-1.158 0-1.988-.845-1.953-1.964h6.325zM34.374 28c.33-1.087 1.383-1.5 2.437-1.5 1.053 0 1.97.397 1.814 1.5h-4.25zm-11.54 1.5l.07-.351c.414-2.631-.933-4.112-3.249-4.112-2.506 0-4.752 1.591-5.115 3.97-.363 2.379 1.383 3.97 3.888 3.97 1.313 0 2.654-.465 3.794-1.552l-1.458-.918c-.605.583-1.264.957-2.301.957-1.158 0-1.988-.845-1.953-1.964h6.324zM16.717 28c.329-1.087 1.425-1.5 2.437-1.5 1.012 0 1.97.397 1.814 1.5h-4.25zm25.762-.5l-.445 2.798c-.205 1.719 0 2.679 2.058 2.679.484 0 1.207-.162 1.673-.352L46 31c-.294.174-.768.37-1.131.37-.916 0-.884-.577-.884-1.232l.262-2.638h2.565L47 26h-2.535L45 23l-2 1.004L42.683 26h-1.466L41 27.5h1.48z" fill="#fff"/><path d="M8 38.79c1.202.293 12.218 1.234 14.874-5.786-3.901 4.061-12.823 3.406-14.423 2.998L8 38.791zM47.546 22c-6.114-1.195-11.949.904-14.101 3.434 2.481-7.672 13.339-6.455 14.555-6.226L47.546 22z" fill="#FF8830"/></svg>