<svg width="56" height="56" xmlns="http://www.w3.org/2000/svg"><path fill="url(#paint0_linear)" d="M0 0h56v56H0z"/><path d="M20.874 23.305c0 1.716.075 3.876 0 5.592-4.287 0-9.023-.298-9.023-.298 1.992 2.789 4.122 4.125 4.385 4.65.902 1.788-.563 2.121 2.632 3.456 0 0 .928.836 1.253.836 1.116 0 .839-1.515 1.63-2.266.238.167.414.274.626.477v-.714c.94.25 1.567.094 1.88.238.477.214 4.888 6.08 4.888 6.08.189.334.189 4.41 5.385 4.41.227 0 .901-.321 1.003-.357-.136-.512-1.127-2.11-1.127-2.384 0-3.125 3.546-5.102 5.515-6.2.136-.071.964-1.287 1-1.312.654-.44 1.581-.513 1.757-.834l.501-3.577c0-1.274-1.229-1.453-1.754-5.602-.1-.824.088-1.205 0-1.431-.265-.024-.439 0-.752 0-.815 0-1.792-1.074-2.006-1.074-.264 0-.502.358-.502.358h-5.389c-.325 0-.463-.525-.501-.715-1.622.073-2.45-.476-3.757-.476-.05 0-.502-.346-.502-.715v-1.802s-1.35.497-3.461 1.572c-2.108 1.075-2.377 1.323-2.832 1.612-.454.29-.85.476-.85.476z" fill="#439539"/><path d="M27.874 19.253c-.057.02-1.398.517-3.506 1.592-1.767.9-2.254 1.225-2.646 1.486l-.222.145-1.021.572-.479.448v1.594c.008.66 0 1.328 0 1.978 0 .493.013.475 0 .932-4.116-.017-8.123 0-8.123 0H11c1.09 1.8 2.52 3.302 4.092 4.694.335.294.714.629.771.742.262.518.297.88.33 1.23.094.984.364 1.514 2.451 2.396.472.42 1.091.897 1.478.897.959 0 1.227-.809 1.422-1.398.08-.247.18-.351.303-.561h2.238c.341.248 2.669 2.871 4.687 5.553.612 2.992 2.61 4.631 5.759 4.631.503 0 1.022-.33 1.479-.525-.125-.616-.411-1.142-.707-1.695-.179-.34-.453-.853-.483-.983.003-2.836 3.453-4.756 5.304-5.789.475-.25.761-.923 1.076-1.353.26-.164.58-.278.867-.375.4-.134.797-.263 1.012-.65l.515-3.68v-.03c0-.601-.227-1.01-.492-1.484-.4-.72-.95-1.708-1.263-4.17-.079-.61.026-.923.026-1.226 0-.203-.082-.382-.153-.568l-1.04-.003c-.397 0-.968-.44-1.31-.702-.31-.24-.482-.372-.696-.372-.307 0-.546.26-.694.421H33v-1c-.807.006-2 .021-2.806.014L29 22v-3l-1.126.253zm-5.927 3.928l.238-.156c.375-.248.84-.558 2.562-1.437C26.021 20.938 28 20.26 28 20.26v1.186C28 23.07 29 23 30.435 23h1.535c.165.451.021 1 .382 1h6.033c.576-.84 1.454.485 2.288.485l.337-.006a4.72 4.72 0 000 1.07c.333 2.625.954 3.738 1.364 4.475.238.427.381.688.385 1.065-.012.088-.44 3.124-.475 3.386-.09.06-.307.136-.482.195-.337.113-.755.254-1.113.497 0 .007-.345.428-.345.428-.17.235-.553.772-.665.887-2.012 1.12-5.69 3.19-5.69 6.542 0 .225.148.524.575 1.33.147.273.309.583.427.829-.23.093-.407.16-.471.166-3.128 0-4.222-1.63-5.04-4.244-2.043-2.714-4.576-5.892-5.052-6.105h-2.965c-.399.38-.566.856-.712 1.298-.217.659-.316.825-.63.825-.11-.032-.58-.373-.974-.728l-.117-.075c-1.919-.8-1.947-1.112-2.008-1.734-.034-.367-.081-.87-.412-1.526-.128-.254-.443-.532-.966-.994-.742-.657-1.876-1.693-2.966-3.066H21v-3.91s.003-1.23 0-1.59l.947-.319zM22.935 11.042l-.474.139-.263.168c-.746.468-1.491.962-1.7 1.415l-.05.138c-1.003 3.024-.918 3.422-.882 3.591.076.372.503 1.01 1.046.913 1.648-.298 3.04-5.518 3.051-5.569l.04-.196-.528-.641-.24.042zm-.17.932c-.347 1.289-1.536 4.297-2.242 4.57a.612.612 0 01-.143-.22v-.017c0-.104.049-.693.861-3.14.152-.608 1.048-.878 1.525-1.193z" fill="#FD0"/><path d="M24.585 11.156c-1.229.223-1.5.951-1.908 2.055l-.595 1.472c-.674 1.464-1.206 1.953-1.524 2.245-.302.279-.508.499-.508.967 0 .14.018.303.058.497.124.59.65.993.782 1.588-.45.056-.869.192-1.104.593.386.723.806.818 1.542.703l1.158-.215c.425-.076.943-.536 1.985-1.483l.939-.843.433-.5.298-.356.26-.295c.223-.257.384-.442.68-.666.393-.297.583-.433.986-.562.253-.08.425-.096.687-.117l.206-.018.53-.026.21.181.11-.816c-.562-.176-1.04-1.11-1.543-1.902-.806-1.266-1.808-2.84-3.682-2.502zm-3.66 7.065c-.03-.148-.05-.243-.05-.316 0-.134.067-.193.25-.363.363-.334.974-.895 1.715-2.512l.62-1.529c.415-1.121.542-1.392 1.274-1.523 1.23-.223 1.919.697 2.827 2.127.308.482.607.945.942 1.32-.213.02-.422.048-.692.135-.527.17-.799.362-1.231.689-.366.277-.572.513-.81.786l-.247.28-.334.4-.369.427-.91.819a25.2 25.2 0 01-1.15 1c-.923.047-1.66-.894-1.834-1.74z" fill="#FD0"/><path d="M19.877 18.653l-.827.135c-.288.02-.684.045-2.027.312l-.442.107-.803.227-.356.107c-.352.093-.754.2-1.062.636a1.31 1.31 0 00-.226 1.023c.16.81 1.033 1.477 1.54 1.8.96.61 1.502.783 1.68.841.03.01-.134-.112-.134-.112l.2.148.303-.032.707-.335c.528-.25.483-1.015.44-1.755l-.019-.635c.044-.716.136-.721 1.263-.773l.468-.022-.055-.464-.213-1.279-.437.071zm-.25.883v.002c-.011 0-.023.003-.036.003.02-.001.02-.001.037-.005zm-.587.09c-.57.142-.963.487-1.022 1.442l.017.735c.01.158.023.383.023.584 0 .174-.013.321-.044.394l-.495.236c-.205-.07-.64-.24-1.398-.72-.66-.422-1.097-.893-1.169-1.258a.466.466 0 01.088-.379c.129-.182.275-.227.596-.312l.432-.13.698-.196.424-.105c1.196-.236 1.586-.272 1.85-.29z" fill="#FD0"/><path d="M29.008 15.562c-1.933.26-2.425.859-3.17 1.765-.505.614-1.135 1.38-2.487 2.38-3.681 2.725-5.84 3.473-5.86 3.48l-.435.147.188.42c.378.84 2.827.393 3.063.297 1.016-.412 1.27-.59 1.635-.866.473-.36 1.186-.902 5.527-2.865 3.096-1.402 5.725-1.56 7.644-1.676l.816-.057c.446-.104.576-.48.617-.604.165-.475-.208-.895-.365-1.074l-.042-.046c-1.437-.95-3.367-1.24-5.073-1.269l-2.025-.034-.033.002zm-5.162 4.816c1.435-1.062 2.129-1.906 2.636-2.521.701-.856 1.027-1.246 2.612-1.465l1.958.034c.358.006 3.547.467 3.944.68.397.212.79.65.807.656l-.74.048c-1.984.119-4.702.284-7.939 1.747-4.426 2.003-5.185 2.58-5.687 2.961-.291.221-.483.367-1.446.759-.144.057-.535.106-.944.126 1.032-.514 2.647-1.433 4.799-3.025z" fill="#FD0"/><defs><linearGradient id="paint0_linear" x1="10.418" y1="9.712" x2="68.147" y2="76.017" gradientUnits="userSpaceOnUse"><stop stop-color="#1A1E21"/><stop offset="1" stop-color="#06060A"/></linearGradient></defs></svg>