<svg xmlns="http://www.w3.org/2000/svg" width="56" height="56"><path fill="#F0F3FA" d="M0 0h56v56H0z"/><path d="M16 22l-5.73 12h-.5L4 22h1.3L10 32l4.65-10H16zm1 9v-9h1v9h-1zm13 0v-8h1v8h-1zm-2-9l-3.74 3.34L29 31h-1.3l-4.24-5L21 28.1V31h-1v-9h1v5l5.8-5H28zm12 0v9h-1l-5-7.4V31h-1v-9h1l5 7.3V22h1zm9.11 2.15A4.29 4.29 0 0046.24 23C44.33 23 43 24.58 43 26.5c0 1.84 1.22 3.5 3.34 3.5.96 0 2.04-.48 2.66-1v-2h-2v-1h3v3.58A5.6 5.6 0 0146.28 31C43.75 31 42 28.98 42 26.5c0-2.5 1.76-4.5 4.23-4.5a5.5 5.5 0 013.62 1.44l-.74.7zm-18.6-2.81l.95.66h-1.89l.94-.66z" fill="#5E6764"/><path d="M31.46 22l-.95-.66L33 20l-1.54 2zm-1.88 0l.93-.66L28 20l1.58 2zM13.94 35v-1.75H13V33h2.14v.25h-.94V35h-.26zm2.49 0v-2h.28v.8H18V33h.27v2H18v-1h-1.29v1h-.28zm3.09-.01V33h1.75v.24H19.8v.53h.9V34h-.9v.76h1.56v.23h-1.84zm2.78 0V33h1.27c.22 0 .4.05.52.15.12.1.18.23.18.4 0 .15-.05.27-.14.38-.1.1-.23.16-.39.19l.56.87H24l-.56-.87h-.86V35h-.28zm.28-1.1h.98c.28 0 .42-.1.42-.33a.3.3 0 00-.1-.24.47.47 0 00-.31-.09h-1v.66zm2.56 1.1l1.1-1.99h.23l1.1 1.99h-.3l-.3-.53h-1.24l-.3.53h-.29zm.72-.77h.99l-.5-.87-.49.87zm2.64.78v-2h1.3c.22 0 .39.07.51.16.13.1.19.23.19.4s-.06.3-.18.41a.7.7 0 01-.49.16h-1.05V35h-.28zm.28-1.1h1c.28 0 .43-.1.43-.32a.3.3 0 00-.11-.24.48.48 0 00-.31-.09h-1.01v.65zM31.5 35v-2h1.77v.23h-1.5v.55h.91V34h-.9v.77h1.58v.22H31.5zm3.25-2v1.26c0 .2.04.34.13.4.08.08.25.11.5.11s.41-.03.5-.1c.08-.07.12-.2.12-.4V33h.28v1.33c0 .23-.07.4-.21.51-.14.1-.37.15-.7.15-.31 0-.54-.04-.68-.15-.14-.1-.21-.28-.21-.51V33h.27zm3.41 2v-1.77h-.95V33h2.18v.23h-.95v1.76h-.28zm5.64-.66l.2.14c-.1.17-.23.3-.39.38a1 1 0 01-.55.14c-.3 0-.56-.1-.76-.28A.94.94 0 0142 34c0-.29.1-.53.3-.72.2-.19.45-.28.76-.28.19 0 .36.04.52.12.15.07.28.18.37.33l-.2.14a.69.69 0 00-.29-.27.85.85 0 00-.4-.1.79.79 0 00-.57.22.74.74 0 00-.23.56c0 .23.08.41.23.56a.8.8 0 00.57.21.8.8 0 00.73-.43zm1.2.31l.15-.2c.3.21.61.32.93.32a.9.9 0 00.47-.11c.12-.08.18-.17.18-.29 0-.09-.05-.16-.13-.23a.68.68 0 00-.36-.1 7.8 7.8 0 00-.49-.04 2 2 0 01-.36-.09c-.2-.09-.3-.22-.3-.39 0-.15.07-.27.22-.37.15-.1.34-.15.58-.15.35 0 .68.1 1 .3l-.15.2a1.4 1.4 0 00-.84-.28.79.79 0 00-.4.08c-.1.06-.14.13-.14.21 0 .07.03.12.1.17.04.03.1.05.16.07l.18.03a10.8 10.8 0 00.51.03c.22.03.39.09.5.2.13.1.19.22.19.37 0 .17-.08.31-.25.43-.16.12-.38.18-.67.18-.4 0-.76-.11-1.08-.34z" fill="#E8271C"/></svg>