<svg width="56" height="56" xmlns="http://www.w3.org/2000/svg"><path fill="#0055A5" d="M0 0h56v56H0z"/><path d="M40.015 17.047a10.831 10.831 0 00-5.517 2.136 11.405 11.405 0 00-4.231 6.406c-.264 1.068-.352 1.918-.323 3.133.034 1.299.21 2.77.587 3.867l.138.411h.645v-.369H32v-5.63h-.686v-.658H35V26h1v1.6h-1V27h-2v2h1.75v-.47c.126-.011.544 0 .544 0v1.834h-.544V30H33v2.631h1v.37h4s-1 0-.992-.869C37 32 37.013 31.915 37 30.415v-1.517h-.788v-.314L38 28.245v3.2c0 .555.4.979 1 .979.766 0 1-.555 1-.979v-2.547h-.5v-.377l1.5-.293v4.196h.5v.35l-.948.226 1.32.004L43.605 33l-.226-.13c-1.052-.474-1.425-1.608-1.425-2.392 0-.73.189-1.224.629-1.668.866-.878 2.735-.855 3.234.423.122.332.111.699.125 1.048h-2.84c.067.752.238 1.692 1.11 1.88.631.137 1.53-.04 1.53-.04.029 0 .242.38.221.401-.008.009-.222.122-.469.248l-.452.23h1.412v-.377H47v-6.322h-.633l.026-.314L48 25.63v6.992h.545V33h1.102l.15-.452c.29-.838.411-1.81.52-2.732.084-.73.063-2.074-.046-2.761-.608-3.93-3.297-7.18-6.92-8.362a9.597 9.597 0 00-3.134-.486 9.383 9.383 0 00-3.075.494c-.54.18-1.48.608-1.97.897-.393.235-.184.059.281-.235a10.698 10.698 0 014.051-1.491c.583-.084 2.225-.075 2.828.02a10.16 10.16 0 015.07 2.318c.787.662 1.688 1.713 2.211 2.58.524.867 1.03 2.09 1.261 3.05.235.972.277 1.378.272 2.618 0 1.077-.012 1.224-.113 1.78-.289 1.605-.817 2.938-1.68 4.232-1.5 2.25-4.05 4.03-6.644 4.633-1.022.24-2.405.331-3.414.23-1.894-.192-3.758-.904-5.258-2.014a3.14 3.14 0 00-.335-.235c0 .013.184.163.41.344 2.02 1.6 4.34 2.408 6.921 2.404a10.521 10.521 0 004.336-.909c2.518-1.11 4.617-3.234 5.74-5.815a11.813 11.813 0 00.293-8.638 12.586 12.586 0 00-1.856-3.322c-.394-.494-1.252-1.353-1.726-1.734-2.212-1.764-5.065-2.631-7.805-2.367zM21.393 25.995v.31H22v6.318h-.566V33h2.11v-.377H23v-6.992l-1.607.364zM27.025 25.82c-.322.087-.611.175-.636.196l-.052.264H27v2.06s-.08-.02-.172-.053c-.222-.076-.629-.076-.939.004-.356.096-.72.301-.988.57-1.002 1.001-.969 3.321.402 3.997.597.282 1.246.047 1.697-.402V33l1.675-.364v-.346h-.654l-.012-3.446L28 25.63s-.62.096-.975.188zm-.241 2.886c.184.142.229.322.216 1.717v1.584c-.393.278-.731.54-1.144.118-.562-.579-.629-2.154-.139-2.925.122-.193.37-.415.545-.494.205-.088.392-.105.522 0zM4 26.377h.57c.412 1.065.916 2.426 1.252 3.518L6.9 33h.603l1.404-3.85L10.343 33h.589l2.326-6.644h.44v-.335l-1.826-.02v.355h.684c0 .05-.081.594-.584 1.872-.045.116-1.107 3.145-1.148 3.105L8.99 26.377h.667V26h-2.22v.377h.527l.587 1.972-1.05 2.984-.195-.407c-.512-1.314-1.037-3.238-1.547-4.553h.546V26H4v.377zM17.846 28.68V29h.649v3.623h-.545V33h2.305v-.377h-.67V29.59c.344-.4.635-.558 1.076-.23.205-.27.403-.544.607-.814-.295-.209-.517-.424-.909-.255-.248.102-.55.427-.67.607-.071.113-.105.009-.105-.314v-.356h-.392l-1.346.452z" fill="#fff"/><path d="M43.861 28.647c-.481.147-.673.728-.745 1.173h1.659c-.036-.526-.173-1.402-.914-1.173zM15.15 28.2c-1.246 0-2.147 1.045-2.147 2.501 0 1.442.901 2.5 2.147 2.5 1.244 0 2.153-1.058 2.153-2.5 0-1.456-.91-2.5-2.153-2.5zm0 4.478c-.568 0-.967-.817-.967-1.977 0-1.174.399-1.988.967-1.988.566 0 .965.814.965 1.988 0 1.16-.4 1.977-.965 1.977z" fill="#fff"/></svg>