<svg width="56" height="56" xmlns="http://www.w3.org/2000/svg"><path fill="#E52011" d="M0 0h56v56H0z"/><path d="M14.685 21.447c.755.636 4.535 0 5.193-.52.565 0-1.209 6.35-1.405 7.835-.152 1.134.575 2.632.897 3.624.146.449.308.682.77.406.363-.22.502-.192.838.038.487.335.962.713 1.582.757 2.27.143 2.81-3.53 2.922-5.385.203-2.823.344-5.127-2.997-5.702.464-.428.965-1.904.913-2.533-.024-.259 1.124-.911 1.667-1.091.794-.264 3.617-.24 4.675-.264.796-.014 1.818-.601 1.902-1.518.093-1.268-1.475-1.755-2.292-1.755-1.12 0-7.094.998-8.473 1.76-1.286.687-3.209.649-4.488 1.223-.344.141-.346 0-.293-.115 3.892-8.466 13.254-6.221 16.198-4.979 1.309.461 4.343 1.919 5.294 2.67 5.49 2.978 8.578 17.58 4.632 18.39-.358.094-.519.33-.487.73-.688-.815-2.205-1.625-3.125-.768-.119.112-.768 0-.684.346.032.131.15.126.24.104.901-.214 1.783 1.824 2.565 2.215-.214.017-.374.159-.582.159-.895.433-.633 2.95-2.378 4.403-.714.774-3.51 3.849-6.474 1.87-.89-.594-3.041-.43-3.286-.137-.704.883-2.173.441-3.008-.055-1.916-1.164-4.662-1.272-6.39-3.8-2.14-3.139-5.55-4.31-6.463-8.707-.85-5.467 2.23-9.459 2.537-9.2zm14.643 14.794c.352.474.735 1.461 1.304 1.683.995.383 1.131-.93 1.165-1.585.083-1.465.179-3.382-.091-4.847-.292-1.73-.12-3.462-.192-5.198a3.01 3.01 0 00-.385-1.376c-.326-.55-1.128-.281-1.48.12-.214.253-.32.132-.48-.005-.273-.23-.439-.186-.514.148-.498 2.144.203 4.968-.678 7.002-.659 1.502-.519 4.659-.32 6.169.093.674.123 1.347.16 2.04.016.255.094.268.25.049.93-1.391.248-3.662.973-5.198.379.397-.092.52.288.998zm6.144.148a1.393 1.393 0 00-.614.257c-.546.378-1.059.489-1.646.752-.374.164-.705.422-1.1.542-.243.083-.505.708-.182.823.171.066.225.18.251.345.074.48.941.887 1.304 1.08 1.447.767 3.398.61 4.423-.806.409-.57.406-1.97.006-2.631-.472-.767-.934-1.78-1.902-1.996-.126-.03-.481-.153-.31-.33.662-.708 1.064-1.792 1.421-2.686.207-.518-.325-1.2-.727-1.184-.139.005-.17-.066-.154-.187.058-.36.3-.568.395-.91.154-.52.615-1.234.513-1.793-.075-.411-.283-.751-.647-.965-.248-.146-.724.053-.625-.373.172-.738.042-1.746.059-2.511 0-.082-.005-.252.203-.093.553.426.736 1.298 1.55 1.179.492-.066.988-.682.827-1.212-.163-.503-.111-1.594-.967-1.349-.298.086-.925.766-1.228.493-.273-.252-.348-.614-.326-.981.026-.43-.326-1.02-.807-1.02-.262.011-.534.357-.513.625.114 1.543.16 4.537.15 4.732-.01.177.095.91-.16 1.08-.38.253-.711.592-.973.954-.438.609-.299 1.25.31 1.793.09.082.155.181.134.28-.187.883-.886 1.154-1.304 1.88-.262.456-.09 1.075.38 1.273.63.265 1.546-.538 1.987-.938.053.05.037.082.032.115-.118.708-.577 1.24-.972 1.771-.395.53-1.019.272-1.384.647-.17.19-.53.984-.374 1.223.608.99.647.768 1.57.39.378-.154 1.414-.729 1.758-.258.474.628.878 1.33.492 2.138-.485.967-1.743 1.008-2.66.921a1.87 1.87 0 01-.888-.356c-.23-.163-.155-.39.102-.455.563-.14 1.075.167 1.661.043a.736.736 0 00.572-.965c-.123-.356.048-1.069.363-1.337zm-1.17-9.503c-.155-.191-.07-.52-.283-.745a.545.545 0 01-.15-.252c-.048-.236-.224-.324-.438-.198a.624.624 0 01-.507.077c-.24-.071-.363.11-.46.241-.15.203.027.938.252 1.091.208.148.368.351.63.444.358.132.972-.11.956-.657z" fill="#fff"/><path d="M22.63 26.832c-.75-.315-1.364.014-2.046.268-.16.06-.22.006-.22-.175 0-1.325.831-1.93 1.833-2.511.085-.05.144-.028.23.038.38.29.558 2.525.203 2.38zM21.439 29.239c.456.147.689-.23 1.079-.247.262-.016.363.033.331.302-.059.565-.123 1.194-.288 1.738-.086.274-.171.312-.45.263-1.146-.208-1.717-2.395-.672-2.056zM29.139 35.852h-.04c0-.006 0-.017.006-.022l.034.033c-.006-.005 0-.011 0-.011zM30.563 33.165c-.048.559.005 1.113-.006 1.672-.005.329-.064.652-.042.987.005.082-.091.208-.23.143-.373-.182-.642-.493-.956-.763-.43-.357.138-1.226.245-1.633.09-.327.588-.298.802-.505.048-.044.112-.077.17-.044.054.022.022.093.017.143zM30.403 30.938c-.022.285-.187.357-.4.417-.086.022-.108-.027-.119-.099-.08-.455.054-.877.214-1.294.027-.071.086-.087.15-.087.07 0 .085.054.101.104.08.31.078.636.054.96zM30.311 28.68c0 .049.017.12-.053.13-.059.006-.101-.049-.101-.103.037-.516-.187-1.01-.113-1.536.038-.24.145-.45.166-.69.005-.055.032-.116.096-.105.08.011.037.077.048.126.15.639-.025 1.503-.043 2.177z" fill="#fff"/></svg>