<svg xmlns="http://www.w3.org/2000/svg" width="56" height="56"><path fill="#1D2B62" d="M0 0h56v56H0z"/><path d="M17.33 16.43L16.5 15l-.84 1.43H14l.82 1.42-.82 1.42h1.66l.84 1.43.83-1.43H19l-.83-1.42.83-1.43h-1.67zm3.84 7L20.33 22l-.83 1.43h-1.67l.83 1.42-.83 1.42h1.67l.83 1.43.84-1.43h1.66l-.82-1.42.82-1.43h-1.66zM39.5 15l.84 1.43H42l-.83 1.42.83 1.42h-1.66l-.84 1.43-.84-1.43H37l.83-1.42-.83-1.43h1.66L39.5 15zm-6.83 1.43L31.83 15 31 16.43h-1.66l.83 1.42-.83 1.42H31l.84 1.43.84-1.43h1.66l-.82-1.42.82-1.43h-1.66zm3 5.57l.83 1.43h1.67l-.83 1.42.83 1.42H36.5l-.83 1.43-.84-1.43h-1.66l.82-1.42-.82-1.43h1.66l.84-1.42zM25 16.43L24.16 15l-.83 1.43h-1.67l.83 1.42-.83 1.42h1.67l.83 1.43.84-1.43h1.66l-.82-1.42.82-1.43H25zM28 22l.84 1.43h1.66l-.83 1.42.83 1.42h-1.66L28 27.7l-.84-1.43H25.5l.82-1.42-.82-1.43h1.66L28 22zm-14 7h10v2.54L19 37h5v3H14v-2.54L19 32h-5v-3zm12 0h3v11h-3V29zm5 11V29h3.74l1.85 5.07L38.27 29H42v11h-3v-4.92L37.35 40h-1.7L34 35.08V40h-3z" fill="#fff"/></svg>